<svg xmlns="http://www.w3.org/2000/svg" xmlns:xlink="http://www.w3.org/1999/xlink" aria-hidden="true" style="position:absolute;width:0;height:0;overflow:hidden">
  <defs>
    <path id="reuse-0" d="M19.417 26.187c.008 0 .017.002.025.005s.015.007.02.013l.116.111c-.09.09-.202.162-.327.211-.147.053-.305.079-.464.076-.149.003-.298-.021-.436-.071-.125-.045-.237-.113-.329-.2-.094-.089-.166-.194-.212-.308-.051-.127-.076-.261-.074-.396-.002-.135.025-.27.08-.397.051-.115.127-.22.225-.308.099-.087.218-.155.349-.201.143-.048.296-.072.449-.071.143-.003.285.019.417.064.115.043.221.104.313.178l-.097.119c-.007.008-.015.016-.025.021-.011.007-.025.01-.039.009-.015-.001-.03-.005-.042-.013l-.052-.032-.073-.04c-.031-.015-.064-.028-.097-.039-.043-.013-.087-.024-.132-.032-.057-.009-.115-.013-.173-.013-.111-.001-.22.017-.323.053-.096.034-.182.084-.253.149-.073.069-.128.15-.164.238-.041.101-.061.207-.06.313-.002.108.018.216.06.318.035.087.09.167.161.236.067.064.149.114.241.147.095.034.197.051.3.05.059.001.119-.003.177-.01.096-.01.188-.039.269-.085.041-.023.079-.049.115-.078.015-.012.035-.02.055-.02zM22.776 25.629c.002.134-.025.267-.078.393-.047.114-.122.218-.219.305s-.214.155-.344.2c-.285.094-.599.094-.884 0-.129-.046-.245-.114-.342-.201-.097-.089-.172-.194-.221-.308-.105-.255-.105-.533 0-.787.05-.115.125-.22.221-.31.097-.084.214-.15.342-.193.284-.096.6-.096.884 0 .129.046.246.114.343.201.096.088.17.191.22.304.054.127.08.261.078.395zm-.306 0c.002-.107-.016-.214-.055-.316-.033-.087-.086-.168-.156-.236-.068-.065-.152-.116-.246-.149-.207-.069-.436-.069-.643 0-.094.033-.178.084-.246.149-.071.068-.125.149-.157.236-.074.206-.074.426 0 .632.033.087.086.168.157.236.068.065.152.115.246.148.207.067.435.067.643 0 .094-.033.177-.083.246-.148.07-.069.123-.149.156-.236.039-.102.058-.209.055-.316zM25.067 25.96l.031.071c.012-.025.022-.048.033-.071.011-.024.024-.047.038-.07l.743-1.174c.015-.02.028-.033.042-.037.02-.005.04-.007.061-.006h.22v1.909h-.26V25.119c-.001-.022-.001-.044 0-.066l-.747 1.19c-.009.018-.025.033-.044.043s-.041.016-.064.016h-.042c-.023 0-.045-.005-.064-.016s-.034-.026-.044-.044l-.769-1.198v1.533h-.252v-1.905h.22c.021-.001.041.001.061.006.018.008.032.021.041.037l.759 1.175c.015.022.028.045.038.068zM27.864 25.865v.715h-.291v-1.906h.649c.122-.002.244.012.362.042.094.023.181.064.256.119.065.052.114.116.145.187.034.078.051.161.049.244.001.084-.017.167-.054.244-.035.073-.089.138-.157.191-.075.057-.162.1-.257.126-.113.031-.232.046-.35.044l-.352-.005zm0-.205h.352c.076.001.153-.009.225-.029.06-.018.115-.046.163-.082.044-.035.078-.078.099-.126.024-.051.036-.105.035-.16.003-.053-.007-.106-.029-.155s-.057-.094-.102-.13c-.111-.075-.251-.112-.391-.102h-.352v.786zM31.772 26.583h-.23c-.023.001-.046-.006-.064-.018-.016-.012-.029-.027-.038-.044l-.198-.461h-.993l-.205.461c-.008.017-.02.032-.036.043-.018.013-.042.02-.065.019h-.23l.872-1.909h.302l.884 1.909zm-1.439-.709h.82l-.346-.777c-.026-.058-.048-.118-.065-.179l-.033.1c-.01.03-.022.058-.032.081l-.343.776zM33.029 24.682c.017.008.032.02.044.034l1.272 1.439V24.673h.26v1.909h-.145c-.021.001-.041-.003-.06-.011-.018-.009-.034-.021-.047-.035l-1.271-1.438c.001.022.001.044 0 .066v1.419h-.26v-1.909h.154c.018 0 .036.003.052.009zM36.748 25.823v.758h-.291v-.758l-.804-1.15h.26c.022-.001.045.005.063.016.016.012.029.027.039.043l.503.742c.02.032.038.061.052.088s.026.054.036.081l.038-.082c.014-.03.031-.059.049-.087l.496-.747c.01-.015.023-.028.038-.04.017-.013.04-.02.063-.019h.263l-.806 1.155zM24.923 21.47c.127.014.255.025.384.035 1.962-.763 3.622-2.011 4.772-3.588s1.74-3.415 1.695-5.282l-2.162-1.879c.44 1.988.234 4.043-.594 5.935s-2.246 3.547-4.094 4.779z" />
    <path id="reuse-1" d="m24.151 21.383.058.01c1.975-1.228 3.481-2.942 4.323-4.921s.981-4.133.399-6.181l-3.08-2.676c1.246 2.2 1.747 4.661 1.446 7.098s-1.393 4.75-3.147 6.67zM34.596 14.841c-.523 2.052-1.794 3.902-3.624 5.276-.534.404-1.111.763-1.722 1.074 1.49-.38 2.859-1.053 4.003-1.966s2.03-2.042 2.592-3.3l-1.249-1.084z" />
    <path id="reuse-2" d="m34.106 14.539-1.778-1.545c-.034 1.762-.61 3.483-1.669 4.986s-2.562 2.731-4.352 3.559h.009c.399 0 .798-.021 1.194-.062 1.673-.593 3.151-1.537 4.303-2.748s1.94-2.65 2.295-4.189zM24.409 6.486 22.287 4.64c-1.897.637-3.528 1.756-4.68 3.212s-1.772 3.179-1.778 4.946c.007 1.952.763 3.846 2.149 5.383s3.322 2.628 5.501 3.101c1.946-2.06 3.085-4.605 3.252-7.266s-.647-5.299-2.323-7.53zM39.008 14.255c-.008-2.316-1.07-4.535-2.955-6.173s-4.439-2.561-7.105-2.567c-1.232-.001-2.453.196-3.602.582l12.99 11.286c.445-.998.673-2.058.672-3.128z" />
  </defs>
  <defs>
    <symbol id="Logo-6" viewBox="0 0 57 32">
      <path d="m20.267 3.733 3.738 3.538-6.938-.004v17.166H35.2v-6.564l3.733 3.534V3.732H20.266zm14.769 13.722L24.439 7.423h10.597v10.032zm-3.29 4.468h-11.81V10.378h.835v10.764h10.975v.782zm-9.021 4.797-.436.898-.436-.898h-.366l.637 1.198v.698h.331v-.698l.635-1.198h-.365zm.548 1.895.154-.441h.734l.155.441h.344l-.717-1.896h-.296l-.716 1.896h.342zm.521-1.493.275.786h-.549l.275-.786zm1.737.741c-.048.073-.072.153-.072.241 0 .16.056.29.168.389s.263.148.451.148.349-.051.484-.152l.107.126h.367l-.279-.329c.109-.149.164-.341.164-.574h-.275c0 .128-.026.243-.079.348l-.366-.432.129-.094c.091-.066.157-.132.197-.198s.06-.14.06-.219c0-.12-.044-.22-.133-.301s-.201-.122-.339-.122c-.153 0-.274.043-.365.13s-.135.203-.135.352c0 .061.014.124.043.189s.081.144.155.237c-.141.101-.235.188-.283.262zm.855.419c-.093.071-.193.107-.299.107-.095 0-.17-.027-.227-.082s-.085-.126-.085-.214c0-.102.052-.192.156-.271l.04-.029.414.488zm-.34-.84c-.089-.11-.134-.202-.134-.275 0-.063.018-.116.055-.158s.085-.063.147-.063c.057 0 .105.018.142.053s.056.077.056.126c0 .075-.027.136-.081.184l-.04.033-.145.099zm3.086 1.03c.13-.114.205-.272.224-.474h-.328c-.017.135-.059.232-.124.29s-.162.087-.292.087c-.142 0-.249-.054-.323-.161s-.109-.264-.109-.469v-.168c.002-.202.041-.355.117-.46s.188-.158.331-.158c.123 0 .217.03.28.091s.104.158.12.294h.328c-.021-.207-.095-.368-.223-.482s-.296-.171-.505-.171c-.155 0-.293.037-.411.111s-.209.179-.272.315c-.063.136-.095.294-.095.473v.177c.003.174.035.328.098.46s.151.234.266.306c.115.071.249.107.4.107.216 0 .389-.056.52-.169zm1.936-.266c.064-.141.096-.304.096-.49v-.105c-.001-.185-.034-.347-.099-.486s-.158-.247-.277-.32c-.119-.075-.256-.112-.41-.112s-.292.038-.411.113c-.119.075-.211.183-.277.324s-.098.305-.098.49v.107c.001.181.034.342.099.48s.159.246.279.322c.121.075.258.112.411.112.155 0 .293-.037.411-.112s.212-.183.276-.323zm-.352-1.071c.08.112.12.273.12.483v.099c0 .214-.04.376-.119.487s-.19.167-.336.167c-.144 0-.257-.057-.339-.171s-.121-.275-.121-.483v-.109c.002-.204.043-.362.122-.473s.192-.168.335-.168c.146 0 .258.056.337.168z" />
    </symbol>
    <symbol id="Logo-5" viewBox="0 0 57 32">
      <use xlink:href="#reuse-0" />
      <use xlink:href="#reuse-1" />
      <use xlink:href="#reuse-2" />
    </symbol>
    <symbol id="Logo-4" viewBox="0 0 57 32">
      <path d="M26.727 3.165h-.073c-.112-.007-.224-.01-.336-.012h-.243c-.212 0-.428.005-.642.016-.016-.001-.032-.001-.049 0-1.944.11-3.848.596-5.609 1.431l-.231.111V16.52l.54-.183c.474-.163.978-.309 1.5-.445 1.411-.362 2.861-.555 4.317-.574v1.551c-.193.001-.38.007-.568.016h-.045c-1.121.061-2.233.232-3.322.51-1.378.345-2.708.863-3.957 1.542V3.792c1.298-.757 2.695-1.325 4.151-1.688 1.279-.33 2.593-.5 3.913-.504h.228c.273.007.538.019.788.038.658.046 1.31.15 1.95.311v1.527c-.621-.145-1.253-.24-1.889-.285l-.039-.003c-.132-.011-.263-.022-.386-.022zm2.688 1.561c.339.026.689.038 1.044.038 1.388-.005 2.769-.182 4.114-.528 1.378-.346 2.706-.865 3.956-1.543v14.875c-1.298.756-2.696 1.325-4.153 1.688-1.279.329-2.593.498-3.913.503-1 .008-1.997-.11-2.968-.35V4.438c.229.053.465.102.706.142.394.066.809.115 1.214.145zm7.57.115-.54.182c-.496.167-.997.316-1.5.449-1.465.377-2.971.57-4.483.575-.352 0-.676-.01-.989-.03l-.43-.028v12.148l.37.033c.343.03.696.045 1.052.045 1.191-.005 2.377-.159 3.531-.457.95-.238 1.874-.57 2.759-.991l.231-.111V4.843zM19.06 24.113c-.078-.08-.171-.144-.275-.186s-.214-.061-.326-.057c-.119-.002-.237.021-.347.065-.101.04-.193.101-.27.178s-.135.17-.174.271c-.042.107-.063.22-.062.335v2.023c-.005.143.022.284.08.415.048.104.117.196.202.271.081.068.176.117.278.144.098.028.2.042.302.042.113.001.224-.023.326-.07.101-.044.193-.108.27-.187.075-.079.135-.171.177-.271.043-.102.065-.212.065-.323v-.226h-.529v.18c.002.062-.009.123-.031.18-.017.043-.043.082-.077.114-.033.026-.07.046-.111.058-.036.012-.073.018-.111.019-.047.006-.095-.002-.139-.021s-.081-.049-.11-.088c-.05-.081-.074-.176-.07-.271v-1.887c-.003-.105.019-.208.065-.302.027-.043.066-.077.112-.098s.097-.03.147-.024c.046-.002.091.008.132.028s.077.049.104.086c.059.078.09.173.088.271v.175h.524v-.206c.001-.121-.021-.241-.065-.354-.039-.106-.099-.203-.177-.285zM22.202 24.09c-.169-.142-.381-.221-.602-.222-.108 0-.215.02-.316.057-.103.037-.198.093-.279.165-.088.079-.158.175-.205.283-.053.124-.079.257-.077.392v1.941c-.004.137.023.272.077.397.048.104.118.197.205.271.081.075.176.133.279.171.101.037.208.056.316.057s.215-.02.316-.057c.105-.038.202-.096.286-.171.084-.076.152-.168.2-.271.054-.125.081-.261.077-.397v-1.941c.003-.135-.024-.268-.077-.392-.047-.107-.115-.203-.2-.283zm-.247 2.616c.004.052-.003.104-.021.152s-.047.092-.084.128c-.07.059-.158.091-.249.091s-.179-.032-.249-.091c-.037-.036-.066-.08-.084-.128s-.025-.101-.021-.152v-1.941c-.004-.052.003-.104.021-.152s.047-.092.084-.128c.07-.059.158-.091.249-.091s.179.032.249.091c.037.036.066.08.084.128s.025.101.021.152v1.941zM26.329 27.573v-3.674h-.509l-.668 1.945h-.009l-.673-1.945h-.503v3.674h.525v-2.235h.009l.514 1.58h.262l.518-1.58h.009v2.235h.525zM29.311 24.157c-.081-.091-.183-.16-.297-.201-.123-.04-.251-.059-.38-.057h-.78v3.674h.523v-1.435h.27c.163.007.326-.027.472-.1.119-.066.218-.163.287-.281.061-.098.101-.206.12-.32.021-.138.03-.278.028-.418.005-.176-.012-.353-.051-.525-.035-.127-.101-.243-.193-.338zm-.27 1.12c-.002.067-.019.132-.049.191-.03.056-.077.102-.135.129-.078.035-.162.05-.247.046h-.239v-1.249h.27c.081-.004.162.012.236.046.054.031.097.079.123.136.029.065.044.134.046.205v.244c0 .085.005.174 0 .252h-.005zM31.791 23.899h-.429l-.809 3.674h.523l.154-.789h.714l.154.789h.524l-.83-3.674zm-.483 2.384.258-1.332h.009l.256 1.332h-.524zM35.173 26.112h-.009l-.791-2.213h-.503v3.674h.523v-2.209h.011l.8 2.209h.492v-3.674h-.523v2.213zM38.372 23.899l-.421 1.461h-.011l-.421-1.461h-.554l.719 2.121v1.553h.524V26.02l.719-2.121h-.554zM17.6 28.61h.252v.708h.171v-.708h.251v-.145h-.675v.145zM19.721 28.465l-.331.853h.182l.07-.194h.34l.073.194h.186l-.339-.853h-.182zm-.027.516.116-.316.116.316h-.232zM21.818 29.004h.197v.11c-.058.046-.129.071-.202.072-.034.002-.069-.004-.1-.019s-.059-.036-.081-.063c-.045-.065-.068-.143-.063-.222 0-.19.082-.285.246-.285.043-.004.086.007.121.032s.061.062.072.104l.169-.033c-.036-.167-.156-.251-.362-.251-.11-.003-.216.036-.298.11-.043.042-.076.094-.097.15s-.03.117-.025.178c-.005.117.034.231.109.32.042.043.092.077.148.098s.116.031.176.027c.134.004.263-.045.362-.136v-.336h-.37v.144zM23.959 28.465h-.173v.853h.598v-.145h-.425v-.708zM25.769 28.465h-.173v.853h.173v-.853zM27.539 29.035l-.349-.57h-.167v.853h.161v-.557l.343.557h.171v-.853h-.158v.57zM29.14 28.943h.425v-.145h-.425v-.187h.457v-.145h-.63v.853h.648v-.145h-.475v-.231zM33.02 28.802h-.336v-.336h-.171v.853h.171v-.373h.336v.373h.171v-.853h-.171v.336zM34.629 28.943h.426v-.145h-.426v-.187h.459v-.145h-.63v.853h.646v-.145h-.475v-.231zM36.812 28.943c.148-.023.224-.102.224-.237.004-.036-.001-.073-.016-.106s-.038-.062-.068-.083c-.077-.039-.163-.056-.25-.05h-.362v.853h.171v-.357h.034c.037-.002.073.004.107.019.025.015.046.037.061.062l.186.271h.205L37 29.148c-.046-.082-.111-.153-.189-.205zm-.172-.118h-.127v-.214h.135c.059-.005.118.002.174.02.012.011.022.025.029.04s.009.032.009.049c-.001.017-.005.033-.013.048s-.019.027-.032.037c-.056.017-.115.024-.174.02zM38.458 28.943h.425v-.145h-.425v-.187h.459v-.145h-.631v.853h.648v-.145h-.475v-.231z" />
    </symbol>
    <symbol id="Logo-3" viewBox="0 0 57 32">
      <use xlink:href="#reuse-0" />
      <use xlink:href="#reuse-1" />
      <use xlink:href="#reuse-2" />
    </symbol>
    <symbol id="Logo-2" viewBox="0 0 57 32">
      <path d="M12.878 11.255h-.002c-1.279 0-2.316.921-2.316 2.058v.001c0 1.137 1.037 2.058 2.316 2.058h.002c1.279 0 2.316-.921 2.316-2.058v-.001c0-1.137-1.037-2.058-2.316-2.058zM29.971 10.597c-.004-1.579-.711-3.092-1.967-4.208s-2.958-1.745-4.735-1.749c-1.777.003-3.48.631-4.737 1.748s-1.964 2.63-1.968 4.209v8.706s13.405-1.327 13.406-8.704v-.001zM5.867 22.16c.003 1.098.496 2.151 1.369 2.928s2.058 1.215 3.294 1.218c1.236-.003 2.42-.441 3.294-1.218s1.366-1.829 1.37-2.927v-6.057s-9.327.924-9.327 6.056zm4.663 1.085c-.242 0-.478-.064-.678-.183s-.357-.289-.45-.487c-.092-.198-.117-.417-.069-.627s.163-.404.334-.556c.171-.152.388-.255.625-.297s.482-.02.706.062c.223.082.414.221.548.4s.206.388.206.603c.001.143-.031.284-.092.417s-.151.252-.264.353c-.114.101-.248.182-.397.236s-.308.083-.468.083v-.004zM19.956 22.647h-.9v.93h-.469v-2.275h1.481v.38h-1.013v.588h.9v.378zm2.253-.156c0 .224-.04.42-.119.589s-.193.299-.341.391c-.147.092-.316.137-.506.137-.189 0-.357-.045-.505-.136s-.262-.22-.344-.387c-.081-.169-.122-.363-.123-.581v-.112c0-.224.04-.421.12-.591.081-.171.195-.302.342-.392.148-.092.317-.137.506-.137s.358.046.505.137c.148.091.262.221.342.392.081.17.122.366.122.589v.102zm-.475-.103c0-.238-.043-.42-.128-.544s-.207-.186-.366-.186c-.157 0-.279.061-.364.184-.085.122-.129.301-.13.538v.111c0 .232.043.412.128.541s.208.192.369.192c.157 0 .278-.061.363-.184.084-.124.127-.304.128-.541v-.111zm1.996.592c0-.089-.031-.156-.094-.203-.062-.048-.175-.098-.337-.15-.163-.053-.291-.105-.386-.156-.258-.14-.388-.328-.388-.564 0-.123.034-.232.103-.328.07-.097.169-.172.298-.227.13-.054.276-.081.438-.081.163 0 .307.03.434.089.127.058.226.141.295.248.071.107.106.229.106.366h-.469c0-.104-.033-.185-.098-.242s-.158-.087-.277-.087c-.115 0-.204.024-.267.073-.064.048-.095.111-.095.191 0 .074.037.136.111.186.075.05.185.097.33.141.267.08.461.18.583.298s.183.267.183.444c0 .197-.075.352-.223.464-.149.111-.349.167-.602.167-.175 0-.334-.032-.478-.095-.144-.065-.254-.153-.33-.264-.075-.111-.112-.241-.112-.388h.47c0 .251.15.377.45.377.111 0 .198-.022.261-.067.063-.046.094-.109.094-.191zm2.501-1.298h-.697v1.895h-.469v-1.895h-.688v-.38h1.853v.38zm1.638.909h-.9v.609h1.056v.377H26.5v-2.275h1.522v.38h-1.053v.542h.9v.367zm1.273.153h-.373v.833H28.3v-2.275h.845c.269 0 .476.06.622.18s.219.289.219.508c0 .155-.034.285-.102.389-.067.103-.168.185-.305.247l.492.93v.022h-.503l-.427-.833zm-.373-.379h.378c.118 0 .209-.03.273-.089.065-.06.097-.143.097-.248 0-.107-.031-.192-.092-.253-.06-.061-.154-.092-.28-.092h-.377v.683zm2.84.41v.802h-.469v-2.275h.888c.171 0 .321.031.45.094.13.063.23.152.3.267s.105.245.105.392c0 .223-.077.399-.23.528-.152.128-.363.192-.633.192h-.411zm0-.379h.419c.124 0 .218-.029.283-.088.066-.058.098-.142.098-.25 0-.111-.033-.202-.098-.27s-.156-.104-.272-.106h-.43v.714zm2.966.195h-.9v.609h1.056v.377h-1.525v-2.275h1.522v.38h-1.053v.542h.9v.367zm2.175-.909h-.697v1.895h-.469v-1.895h-.688v-.38h1.853v.38zm1.637.909h-.9v.609h1.056v.377h-1.525v-2.275h1.522v.38h-1.053v.542h.9v.367zm1.274.153h-.373v.833h-.469v-2.275h.845c.269 0 .476.06.622.18s.219.289.219.508c0 .155-.034.285-.102.389-.067.103-.168.185-.305.247l.492.93v.022h-.503l-.427-.833zm-.374-.379h.378c.118 0 .209-.03.273-.089.065-.06.097-.143.097-.248 0-.107-.031-.192-.092-.253-.06-.061-.154-.092-.28-.092h-.377v.683zm2.755.615c0-.089-.031-.156-.094-.203-.063-.048-.175-.098-.337-.15-.163-.053-.291-.105-.386-.156-.258-.14-.387-.328-.387-.564 0-.123.034-.232.103-.328.07-.097.169-.172.298-.227s.276-.081.438-.081c.163 0 .307.03.434.089.127.058.225.141.295.248s.106.229.106.366h-.469c0-.104-.033-.185-.098-.242s-.158-.087-.277-.087c-.115 0-.204.024-.267.073-.064.048-.095.111-.095.191 0 .074.037.136.111.186.075.05.185.097.33.141.267.08.461.18.583.298s.183.267.183.444c0 .197-.075.352-.223.464-.149.111-.349.167-.602.167-.175 0-.334-.032-.478-.095-.144-.065-.254-.153-.33-.264s-.113-.241-.113-.388h.47c0 .251.15.377.45.377.111 0 .198-.022.261-.067.063-.046.094-.109.094-.191z" />
    </symbol>
    <symbol id="Logo-1" viewBox="0 0 57 32">
      <path d="M28.493 14.618c-.236-.315-.349-.686-.323-1.061v-1.538c0-.471.107-.83.321-1.075s.581-.367 1.102-.366c.489 0 .836.104 1.042.313.224.266.333.592.308.92v.361h-.875v-.366c.003-.12-.005-.24-.025-.358-.013-.081-.057-.156-.125-.213-.09-.061-.203-.091-.317-.083-.12-.008-.239.024-.333.088-.076.063-.127.145-.145.235-.025.126-.037.253-.034.38v1.866c-.014.18.025.36.112.524.044.055.104.099.175.127s.149.038.226.029c.112.008.223-.022.31-.084.071-.061.117-.141.13-.227.02-.124.03-.249.027-.374v-.379h.875v.346c.025.342-.082.682-.303.967-.201.228-.544.343-1.047.343s-.884-.122-1.1-.375zM32.137 14.633c-.221-.239-.332-.588-.332-1.05v-1.617c0-.457.11-.802.332-1.037s.591-.351 1.109-.35c.515 0 .882.117 1.103.35.221.235.333.58.333 1.037v1.617c0 .457-.112.807-.337 1.048s-.591.361-1.1.361-.886-.122-1.109-.36zm1.517-.388c.079-.15.115-.314.105-.479v-1.98c.01-.161-.025-.322-.103-.469-.044-.057-.106-.101-.179-.129s-.152-.037-.231-.027c-.079-.009-.159 0-.231.028s-.135.072-.18.129c-.08.146-.116.308-.105.469v1.99c-.011.165.025.329.105.479.051.05.114.091.185.119s.147.042.225.042c.078 0 .154-.014.225-.042s.134-.068.185-.119v-.009zM35.735 10.626h.942l.708 2.984.725-2.984h.917l.092 4.308h-.678l-.072-2.994-.699 2.994h-.544l-.725-3.005-.067 3.005h-.685l.085-4.308zM40.176 10.626h1.468c.846 0 1.268.408 1.268 1.223 0 .781-.445 1.171-1.335 1.17h-.5v1.915h-.906l.005-4.308zm1.254 1.841c.09.01.18.003.266-.021s.165-.063.232-.115c.104-.146.15-.316.13-.486.005-.131-.01-.263-.043-.391-.013-.043-.036-.083-.067-.118s-.07-.065-.114-.087c-.126-.052-.265-.076-.404-.069h-.351v1.287h.351zM44.218 10.626h.973l.998 4.308h-.844l-.197-.993h-.868l-.203.993h-.857l.998-4.308zm.832 2.815-.339-1.808-.339 1.808h.678zM46.996 10.626h.634l1.214 2.457v-2.457h.752v4.308h-.603l-1.221-2.565v2.565h-.777l.002-4.308zM51.357 13.291l-1.009-2.659h.85l.616 1.708.578-1.708h.832l-.997 2.659v1.642h-.87v-1.642zM29.892 16.817v.225h-.739v1.75h-.31v-1.75H28.1v-.225h1.792zM32.209 18.793h-.239c-.024.001-.048-.005-.067-.019-.018-.011-.032-.027-.04-.045l-.214-.469h-1.026l-.214.469c-.006.02-.017.038-.033.053-.019.013-.043.02-.067.019h-.239l.906-1.976h.315l.917 1.968zm-1.5-.734h.855l-.362-.804c-.027-.061-.049-.123-.067-.186-.013.038-.024.073-.034.105l-.033.083-.359.802zM33.771 18.599c.057.003.114.003.17 0 .049-.004.097-.012.145-.023.044-.009.088-.021.13-.036.04-.014.08-.031.121-.048v-.444h-.362c-.009 0-.018-.001-.026-.003s-.016-.007-.023-.012c-.006-.004-.011-.01-.014-.016s-.005-.013-.004-.02v-.152h.703v.757c-.057.035-.118.067-.181.094-.065.028-.132.05-.201.067-.074.019-.15.032-.227.041-.088.008-.176.013-.265.012-.156.001-.311-.024-.457-.073-.136-.047-.259-.117-.362-.206-.101-.09-.18-.196-.234-.313-.057-.131-.085-.27-.083-.41-.002-.141.026-.281.081-.413.052-.117.132-.224.234-.313.103-.089.227-.159.362-.205.155-.05.32-.075.486-.074.084 0 .169.006.252.017.074.01.146.027.216.05.063.021.124.047.181.078.056.031.108.065.158.103l-.087.122c-.007.011-.017.021-.029.027s-.027.01-.041.01c-.02-.001-.04-.006-.056-.016-.027-.013-.056-.028-.089-.047-.038-.021-.079-.039-.121-.053-.054-.019-.11-.033-.167-.044-.076-.012-.153-.018-.23-.017-.12-.001-.238.017-.35.055-.101.035-.192.088-.266.156-.075.071-.132.155-.168.246-.081.214-.081.445 0 .659.04.093.101.178.181.249.074.068.164.121.265.156.115.034.237.047.359.039zM36.659 18.567h.989v.225h-1.292v-1.976h.31l-.007 1.75zM38.678 18.792h-.31v-1.976h.31v1.976zM39.83 16.826c.018.009.034.021.047.036l1.324 1.489c-.002-.023-.002-.047 0-.07v-1.472h.27v1.984h-.156c-.023.002-.046-.002-.067-.011-.019-.01-.035-.023-.049-.038l-1.323-1.488v1.536h-.259v-1.976h.161c.017 0 .035.003.051.009zM43.753 16.817v.217h-1.098v.652h.89v.21h-.89v.674h1.098v.217h-1.417v-1.971h1.417zM11.286 4.616l13.757 3.372v11.818l-13.757-3.371V4.616zm-.882-1.007V17.01l15.52 3.806V7.417L10.404 3.61z" />
      <path d="M18.722 27.036 3.2 23.227V9.828l15.522 3.807v13.401z" />
      <path d="m10.661 4.465 13.578 3.33-5.774 4.987L4.885 9.45l5.776-4.985zm-.257-.856L3.2 9.828l15.522 3.807 7.202-6.219-15.52-3.807zM19.595 26.282l6.329-5.465-6.329-1.553v7.018z" />
    </symbol>
    <symbol id="Logo" viewBox="0 0 57 32">
      <path d="M14.27 23.859c.13.147.199.332.196.521.007.123-.017.247-.07.361s-.132.216-.233.297c-.252.175-.565.26-.881.24h-1.549v-3.302h1.517c.299-.018.596.059.84.219.098.075.176.17.227.277s.074.224.068.341c.009.182-.054.361-.176.505-.118.131-.28.222-.462.258.205.034.391.134.523.282zm-1.816-.499h.648c.147.01.294-.029.412-.11.049-.04.087-.09.111-.146s.034-.116.028-.176c.005-.06-.005-.12-.029-.175s-.061-.106-.108-.147c-.122-.083-.273-.123-.425-.111h-.638v.866zm1.124 1.267c.052-.041.093-.093.12-.151s.038-.121.034-.184c.004-.064-.008-.127-.035-.186s-.069-.111-.121-.153c-.127-.086-.283-.128-.44-.119h-.68v.908h.689c.155.008.309-.032.435-.114zM17.371 25.278l-.844-1.291h-.317v1.291h-.726v-3.302h1.374c.346-.022.689.078.957.281.192.179.308.415.327.666s-.061.499-.224.7c-.17.178-.401.296-.655.336l.898 1.32h-.789zm-1.161-1.74h.594c.412 0 .618-.167.618-.5.004-.068-.007-.136-.033-.2s-.066-.122-.118-.171c-.13-.099-.298-.147-.467-.134h-.601l.007 1.005zM21.339 24.614h-1.446l-.255.665h-.761l1.328-3.265h.823l1.323 3.265h-.761l-.25-.665zm-.194-.5-.529-1.394-.529 1.394h1.057zM26.305 25.278h-.721l-1.616-2.245v2.245h-.719v-3.302h.719l1.616 2.258v-2.258h.721v3.302zM30.417 24.488c-.149.249-.376.452-.652.582-.314.145-.662.217-1.013.208h-1.283v-3.302h1.283c.351-.008.698.061 1.013.203.276.127.503.328.652.576.148.269.226.565.226.866s-.077.598-.226.866zm-.824-.079c.206-.219.319-.499.319-.788s-.113-.569-.319-.788c-.249-.199-.573-.3-.902-.281h-.5v2.137h.5c.329.019.654-.082.902-.281zM21.79 3.609s9.301 3.215 9.103 7.867v7.869s-9.294-3.217-9.1-7.869l-.004-7.867zM39.179 17.503c1.757-1.107 3.788-1.792 5.909-1.994v-2.463c-2.444.862-4.517 2.426-5.909 4.457z" />
      <path d="M38.124 18.245c1.438-2.651 3.93-4.696 6.964-5.715V5.432s-13.245 4.58-12.965 11.205V27.84s.59-.205 1.519-.589c0-.358 0-.719.042-1.082.274-3.076 1.871-5.926 4.44-7.924z" />
      <path d="M36.864 22.407c.07-.777.225-1.546.463-2.294-1.599 1.725-2.568 3.866-2.77 6.122-.019.213-.03.426-.035.645.752-.331 1.628-.744 2.548-1.229-.235-1.067-.304-2.159-.206-3.244zM37.391 22.447c-.088.982-.033 1.969.164 2.938 3.619-1.983 7.685-5.046 7.528-8.748v-.323c-2.586.265-5.004 1.3-6.885 2.946-.44 1.02-.712 2.094-.807 3.188z" />
    </symbol>
    <symbol id="astronaut-1" viewBox="0 0 32 32">
      <path fill="#2196f3" style="fill: var(--color2, #2196f3)" d="M31.974 4.524c-0.064-0.191-0.227-0.332-0.427-0.362l-0.003-0-1.911-0.278-0.855-1.731c-0.179-0.365-0.777-0.365-0.956 0l-0.855 1.731-1.911 0.278c-0.26 0.039-0.457 0.26-0.457 0.528 0 0.15 0.062 0.285 0.161 0.382l1.383 1.348-0.326 1.903c-0.034 0.2 0.048 0.402 0.212 0.522 0.166 0.12 0.383 0.135 0.562 0.040l1.709-0.899 1.709 0.899c0.072 0.038 0.157 0.061 0.247 0.061 0.295 0 0.534-0.239 0.534-0.534 0-0.031-0.003-0.062-0.008-0.092l0 0.003-0.326-1.903 1.383-1.348c0.099-0.097 0.161-0.233 0.161-0.382 0-0.059-0.009-0.115-0.027-0.168l0.001 0.004zM29.511 5.851c-0.126 0.122-0.183 0.299-0.153 0.472l0.191 1.114-1-0.526c-0.072-0.039-0.158-0.062-0.249-0.062s-0.177 0.023-0.252 0.063l0.003-0.001-1 0.526 0.191-1.114c0.005-0.027 0.008-0.059 0.008-0.091 0-0.149-0.061-0.285-0.16-0.381l-0-0-0.811-0.79 1.119-0.162c0.174-0.025 0.324-0.134 0.402-0.292l0.5-1.013 0.5 1.013c0.078 0.158 0.228 0.267 0.402 0.292l1.119 0.162-0.809 0.79zM26.134 20.522h-1.067v1.067h1.067v-1.067zM26.134 22.656h-1.067v1.066h1.067v-1.066zM27.2 21.589h-1.067v1.067h1.067v-1.067zM25.067 21.589h-1.067v1.067h1.067v-1.067zM22.4 26.389h-1.067v1.067h1.067v-1.067zM22.4 28.523h-1.067v1.067h1.067v-1.067zM23.467 27.456h-1.067v1.067h1.067v-1.067zM21.334 27.456h-1.067v1.067h1.067v-1.067zM16 24.256h-1.066v1.067h1.066v-1.067zM16 26.389h-1.066v1.067h1.066v-1.067zM17.067 25.322h-1.067v1.067h1.067v-1.067zM14.934 25.322h-1.067v1.067h1.067v-1.067zM5.867 6.122h-1.066v1.066h1.066v-1.066zM5.867 8.256h-1.066v1.066h1.066v-1.066zM6.933 7.189h-1.067v1.067h1.066v-1.067zM4.8 7.189h-1.067v1.067h1.067v-1.067z"></path>
      <path fill="#212121" style="fill: var(--color1, #212121)" d="M24.715 14.16c-0.28-0.376-0.698-0.636-1.179-0.703l-0.009-0.001c-0.076-0.012-0.164-0.018-0.254-0.018-0.411 0-0.789 0.139-1.090 0.373l0.004-0.003-1.253 0.96-1.898 1.417-1.358-0.541c2.421-1.086 4.113-3.508 4.113-6.32 0-3.823-3.122-6.934-6.961-6.934s-6.961 3.11-6.961 6.934c0 1.386 0.415 2.674 1.12 3.759l-2.768-0.024c-0.009 0-0.016 0.005-0.023 0.005-0.057 0.003-0.11 0.014-0.159 0.033l0.004-0.001c-0.013 0.005-0.026 0.007-0.038 0.013-0.006 0.003-0.013 0.003-0.019 0.006l-3.233 1.596c-0 0-0.001 0-0.001 0.001l-1.893 0.91c-0.024 0.011-0.045 0.023-0.065 0.036l0.001-0.001c-0.482 0.324-0.795 0.867-0.795 1.483 0 0.297 0.073 0.577 0.201 0.823l-0.005-0.010c0.22 0.424 0.592 0.742 1.043 0.885l0.013 0.003c0.161 0.053 0.345 0.083 0.537 0.083 0.308 0 0.598-0.078 0.851-0.216l-0.009 0.005 1.388-0.738 2.264-1.169 1.357-0.008-5.442 5.415c0 0.001-0.001 0.001-0.001 0.001l-1.339 1.333c-0.303 0.299-0.491 0.714-0.491 1.173 0 0.002 0 0.003 0 0.005v-0c0.002 0.919 0.748 1.664 1.667 1.664 0.001 0 0.002 0 0.002 0h-0c0.428 0 0.854-0.162 1.18-0.485l1.314-1.309 1.741-1.3 0.901 0.897-3.102 3.088c-0.303 0.299-0.491 0.714-0.491 1.173 0 0.001 0 0.003 0 0.004v-0c0 0.445 0.174 0.864 0.49 1.179 0.302 0.3 0.717 0.485 1.176 0.485 0.001 0 0.002 0 0.003 0h-0c0.427 0 0.855-0.162 1.18-0.485l4.488-4.472c0.007-0.006 0.016-0.009 0.022-0.016l5.166-5.658 3.471 0.494c0.025 0.004 0.050 0.006 0.075 0.006 0.064 0 0.127-0.016 0.187-0.038 0.017-0.006 0.032-0.015 0.049-0.023 0.019-0.010 0.039-0.015 0.058-0.027l3.213-2.133c0.012-0.008 0.018-0.021 0.029-0.030 0.013-0.010 0.029-0.014 0.041-0.026l1.271-1.191c0.348-0.326 0.564-0.787 0.564-1.3 0-0.4-0.132-0.769-0.355-1.066l0.003 0.005zM2.13 17.77c-0.098 0.054-0.215 0.086-0.34 0.086-0.078 0-0.153-0.013-0.224-0.036l0.005 0.001c-0.294-0.093-0.504-0.364-0.504-0.683 0-0.235 0.114-0.444 0.289-0.575l0.002-0.001 1.314-0.632 0.316 0.924 0.133 0.389-0.992 0.527zM5.627 15.942l-1.548 0.8-0.255-0.746-0.184-0.537 2.027-1.001-0.040 1.484zM20.727 9.322c0 0.918-0.219 1.785-0.599 2.56l-4.181-1.899c-0.044-0.575-0.342-1.072-0.782-1.384l-0.006-0.004 1.464-4.861c2.377 0.757 4.104 2.975 4.104 5.588zM8.938 9.322c0-3.235 2.644-5.867 5.894-5.867 0.253 0 0.5 0.022 0.745 0.053l-1.432 4.753c-0.019 0-0.037-0.006-0.057-0.006-0 0-0.001 0-0.001 0-1.032 0-1.869 0.835-1.872 1.867v0c0.003 1.031 0.84 1.867 1.872 1.867 0 0 0 0 0.001 0h-0c0.695 0 1.295-0.383 1.618-0.944l3.863 1.755c-1.075 1.447-2.795 2.39-4.737 2.39-3.25 0-5.894-2.632-5.894-5.867zM14.895 10.122c0 0.441-0.362 0.8-0.806 0.8-0 0-0.001 0-0.001 0-0.443 0-0.802-0.358-0.804-0.8v-0c0-0.441 0.361-0.8 0.806-0.8s0.806 0.359 0.806 0.8zM2.464 25.146c-0.11 0.109-0.261 0.176-0.428 0.176s-0.317-0.067-0.427-0.175l0 0c-0.109-0.108-0.176-0.257-0.176-0.422s0.067-0.314 0.176-0.422l0-0 0.962-0.959 0.852 0.848-0.959 0.954zM5.678 28.88c-0.11 0.109-0.261 0.176-0.428 0.176s-0.317-0.067-0.427-0.175l0 0c-0.109-0.108-0.176-0.257-0.176-0.422s0.067-0.314 0.176-0.422l0-0 0.963-0.959 0.852 0.848-0.96 0.955zM9.16 25.411l-0.001 0.001-1.765 1.76-0.852-0.848 1.765-1.757c0.040-0.040 0.065-0.088 0.090-0.136 0.007-0.014 0.020-0.026 0.026-0.040 0.016-0.041 0.019-0.085 0.026-0.128 0.003-0.025 0.014-0.048 0.014-0.073 0-0.035-0.013-0.070-0.020-0.105-0.006-0.032-0.006-0.064-0.019-0.096-0.025-0.053-0.055-0.098-0.092-0.138l0 0c-0.010-0.012-0.014-0.026-0.025-0.038h-0.001s0-0.001-0.001-0.002l-1.607-1.6c-0.017-0.017-0.039-0.024-0.058-0.038-0.025-0.021-0.054-0.040-0.084-0.056l-0.003-0.001c-0.026-0.012-0.058-0.023-0.090-0.031l-0.003-0.001c-0.030-0.009-0.065-0.017-0.101-0.020l-0.002-0c-0.007-0-0.015-0-0.023-0-0.026 0-0.051 0.002-0.075 0.005l0.003-0c-0.036 0.005-0.069 0.009-0.104 0.021s-0.064 0.027-0.094 0.045c-0.020 0.011-0.043 0.015-0.061 0.029l-1.774 1.324-0.901-0.897 2.399-2.386 4.36 4.289-0.928 0.919zM15.979 18.394c-0.016-0.002-0.030 0.004-0.046 0.003-0.008-0-0.017-0.001-0.027-0.001-0.031 0-0.062 0.003-0.092 0.008l0.003-0c-0.070 0.011-0.132 0.035-0.187 0.070l0.002-0.001c-0.030 0.018-0.057 0.037-0.083 0.061-0.013 0.011-0.028 0.016-0.040 0.029l-4.698 5.146-4.328-4.256 2.833-2.818c0.096-0.097 0.156-0.23 0.156-0.377 0-0.295-0.239-0.534-0.534-0.534-0.001 0-0.001 0-0.002 0h0l-2.219 0.013 0.028-1.607 3.104 0.027c1.264 1.297 3.027 2.101 4.978 2.101 0.001 0 0.002 0 0.003 0h-0c0.438 0 0.864-0.046 1.28-0.122 0.040 0.032 0.080 0.064 0.129 0.085l2.41 0.96 0.152 0.758 0.178 0.886-3.003-0.427zM20.020 18.572l-0.313-1.558 1.446-1.080 0.946 1.257-2.080 1.381zM23.773 15.741l-0.837 0.785-0.931-1.236 0.831-0.637c0.155-0.119 0.351-0.168 0.543-0.143 0.193 0.027 0.364 0.128 0.48 0.284 0.088 0.117 0.141 0.265 0.141 0.426 0 0.206-0.087 0.391-0.226 0.521l-0 0z"></path>
      <path fill="#212121" style="fill: var(--color1, #212121)" d="M13.602 18.544l-2.143-2.134c-0.096-0.096-0.229-0.155-0.376-0.155s-0.28 0.059-0.376 0.155l-2.143 2.133c-0.097 0.097-0.156 0.23-0.156 0.378s0.060 0.281 0.156 0.378l-0-0 2.142 2.134c0.096 0.096 0.229 0.156 0.376 0.156s0.28-0.059 0.376-0.156v0l2.143-2.134c0.097-0.097 0.157-0.23 0.157-0.378s-0.060-0.281-0.157-0.378l-0-0zM11.083 20.303l-1.387-1.381 1.386-1.381 1.387 1.381-1.387 1.381zM17.164 5.071l-0.258 1.036c0.071 0.018 1.738 0.452 1.738 2.149h1.067c0-2.017-1.666-2.965-2.547-3.184zM19.711 9.322h-1.067v1.066h1.067v-1.066z"></path>
    </symbol>
    <symbol id="antenna-1" viewBox="0 0 32 32">
      <path fill="#212121" style="fill: var(--color1, #212121)" d="M30.773 22.098l-8.443-8.505 0.937-4.616c0.225 0.090 0.485 0.144 0.758 0.146h0.007c0.008 0 0.017 0 0.026 0 1.192 0 2.159-0.967 2.159-2.159s-0.967-2.159-2.159-2.159c-1.192 0-2.159 0.967-2.159 2.159 0 0.259 0.046 0.508 0.13 0.739l-0.005-0.015-4.96 0.606-8.091-8.133c-0.096-0.098-0.229-0.159-0.376-0.16h-0c-0.14 0.001-0.274 0.057-0.373 0.155l-1.512 1.504c-0.096 0.097-0.156 0.23-0.156 0.377s0.060 0.281 0.156 0.377v0l0.814 0.825c-1.143 2.062-1.816 4.522-1.816 7.139 0 4.106 1.656 7.824 4.336 10.525l-0.001-0.001c0.043 0.041 0.092 0.074 0.146 0.097-0.032 0.164-0.051 0.353-0.052 0.546v6.188h-6.4c-1.472 0.001-2.666 1.194-2.667 2.666v1.067c0 0.295 0.239 0.534 0.534 0.534h24.534c0.294 0 0.533-0.239 0.533-0.534v-1.067c-0.002-1.472-1.195-2.665-2.666-2.666h-6.4v-2.742c1.003 0.21 2.024 0.317 3.049 0.32 2.58-0.003 5.005-0.663 7.117-1.822l-0.077 0.039 0.818 0.823c0.099 0.101 0.235 0.159 0.376 0.16 0.14-0.001 0.274-0.057 0.373-0.155l1.512-1.504c0.096-0.097 0.156-0.23 0.156-0.377s-0.060-0.281-0.156-0.377v0zM23.28 6.233c0.193-0.192 0.459-0.31 0.752-0.31 0.589 0 1.067 0.478 1.067 1.066s-0.477 1.066-1.067 1.066c-0 0-0 0-0 0h-0.004c-0.587-0.003-1.061-0.479-1.061-1.066 0-0.295 0.12-0.563 0.314-0.756l0-0h-0.002zM22.024 9.737l-0.598 2.946-1.175-1.183 1.774-1.763zM21.419 8.835l-1.92 1.909-1.486-1.493 3.406-0.416zM24.004 28.8c0.884 0 1.6 0.716 1.6 1.6v0 0.534h-23.466v-0.534c0-0.884 0.716-1.6 1.6-1.6v0h20.267zM16.538 26.666v1.067h-5.334v-1.067h5.334zM11.204 25.6v-4.053c0-1.294 1.196-2.346 2.667-2.346s2.667 1.053 2.667 2.346v4.053h-5.334zM17.604 23.904v-2.357c0-1.882-1.675-3.413-3.733-3.413-0.017-0-0.038-0-0.058-0-1.353 0-2.54 0.707-3.213 1.771l-0.009 0.016c-2.36-2.482-3.812-5.846-3.812-9.55 0-2.314 0.567-4.496 1.569-6.414l-0.036 0.077 18.602 18.709c-1.823 0.947-3.979 1.502-6.266 1.502-1.079 0-2.128-0.124-3.136-0.357l0.093 0.018zM28.893 23.22l-21.057-21.181 0.754-0.752 7.935 7.98c0.004 0 0.006 0.007 0.010 0.010l13.114 13.191-0.757 0.752z"></path>
      <path fill="#2196f3" style="fill: var(--color2, #2196f3)" d="M13.876 20.267h-0.005c-0.001 0-0.002 0-0.002 0-0.884 0-1.6 0.716-1.6 1.6s0.715 1.599 1.597 1.6h0.005c0.001 0 0.001 0 0.002 0 0.884 0 1.6-0.716 1.6-1.6s-0.715-1.599-1.598-1.6h-0zM14.249 22.245c-0.096 0.096-0.229 0.155-0.376 0.155-0.295 0-0.534-0.239-0.534-0.534s0.238-0.533 0.532-0.533h0c0.293 0.001 0.531 0.239 0.531 0.533 0 0.148-0.060 0.282-0.157 0.378l-0 0h0.005z"></path>
    </symbol>
    <symbol id="clock-1" viewBox="0 0 32 32">
      <path fill="#212121" style="fill: var(--color1, #212121)" d="M31.296 15.301c-0.001-8.452-6.855-15.303-15.308-15.301s-15.303 6.855-15.301 15.308c0.002 6.788 4.422 12.543 10.541 14.545l0.108 0.031c0.061 0.019 0.123 0.029 0.187 0.029 0.12 0 0.238-0.032 0.342-0.094 0.135-0.080 0.236-0.207 0.283-0.357l3.865-12.25c1.054-0.004 1.906-0.859 1.906-1.913 0-1.056-0.856-1.913-1.913-1.913-0.303 0-0.59 0.071-0.845 0.196l0.011-0.005-5.106-5.107c-0.114-0.11-0.271-0.179-0.443-0.179-0.352 0-0.638 0.286-0.638 0.638 0 0.172 0.068 0.328 0.179 0.443l-0-0 5.103 5.109c-0.121 0.241-0.191 0.525-0.191 0.826 0 0.602 0.283 1.137 0.723 1.48l0.004 0.003-3.682 11.673c-7.278-2.681-11.004-10.754-8.324-18.032s10.754-11.004 18.032-8.323c7.278 2.681 11.004 10.754 8.323 18.032-1.345 3.581-4.003 6.406-7.374 7.938l-0.088 0.036-0.398-1.874c-0.063-0.291-0.318-0.506-0.624-0.506-0.164 0-0.313 0.062-0.426 0.163l0.001-0.001-3.837 3.426c-0.132 0.117-0.214 0.287-0.214 0.477 0 0.283 0.185 0.524 0.441 0.606l0.005 0.001 4.899 1.563c0.058 0.020 0.126 0.031 0.196 0.031 0.352 0 0.637-0.285 0.637-0.637 0-0.047-0.005-0.093-0.015-0.138l0.001 0.004-0.391-1.839c5.528-2.374 9.329-7.772 9.329-14.057 0-0.011 0-0.023-0-0.034v0.002zM15.992 14.664c0.352 0 0.638 0.286 0.638 0.638s-0.285 0.638-0.638 0.638v0c-0.352 0-0.638-0.286-0.638-0.638s0.286-0.638 0.638-0.638v0zM18.092 29.528l2.184-1.948 0.603 2.84-2.787-0.892z"></path>
      <path fill="#2196f3" style="fill: var(--color2, #2196f3)" d="M15.354 3.185v1.275c0 0.352 0.286 0.638 0.638 0.638s0.638-0.285 0.638-0.638v0-1.275c0-0.352-0.285-0.638-0.638-0.638s-0.638 0.285-0.638 0.638v0zM3.876 14.664c-0.352 0-0.638 0.286-0.638 0.638s0.285 0.638 0.638 0.638h1.275c0.352 0 0.638-0.286 0.638-0.638s-0.285-0.638-0.638-0.638h-1.275zM28.108 15.939c0.352 0 0.638-0.286 0.638-0.638s-0.285-0.638-0.638-0.638h-1.275c-0.352 0-0.638 0.286-0.638 0.638s0.285 0.638 0.638 0.638h1.275z"></path>
    </symbol>
    <symbol id="diagram-1" viewBox="0 0 32 32">
      <path fill="#2196f3" style="fill: var(--color2, #2196f3)" d="M14.926 14.965h1.066v4.798h-1.066v-4.798zM19.19 17.097h1.066v2.665h-1.066v-2.665zM10.661 18.696h1.066v1.066h-1.066v-1.066zM7.463 18.163h1.066v1.599h-1.066v-1.599z"></path>
      <path fill="#212121" style="fill: var(--color1, #212121)" d="M1.599 28.291h25.586c0 0 0 0 0 0 0.883 0 1.599-0.716 1.599-1.599v0-2.132c0-0.883-0.716-1.599-1.599-1.599v0h-0.533v-13.294l3.028-2.868c0.207 0.104 0.452 0.166 0.711 0.166 0.888 0 1.608-0.72 1.608-1.608s-0.72-1.608-1.608-1.608c-0.888 0-1.608 0.72-1.608 1.608 0 0.247 0.056 0.481 0.155 0.69l-0.004-0.010-2.281 2.162v-1.23c0-0.883-0.716-1.599-1.599-1.599v0h-21.323c-0.883 0-1.599 0.716-1.599 1.599v0 15.992h-0.533c-0.883 0-1.599 0.716-1.599 1.599v0 2.132c0 0.883 0.716 1.599 1.599 1.599v0zM30.384 4.837c0.294 0 0.533 0.239 0.533 0.533s-0.239 0.533-0.533 0.533v0c-0.294 0-0.533-0.239-0.533-0.533s0.239-0.533 0.533-0.533v0zM3.198 6.969c0-0.294 0.239-0.533 0.533-0.533h21.323c0.294 0 0.533 0.239 0.533 0.533v2.239l-1.066 1.013v-2.185c0-0.295-0.239-0.534-0.534-0.534h-19.189c-0.294 0-0.534 0.239-0.534 0.533v13.327c0 0.294 0.239 0.533 0.534 0.533h19.189c0.295 0 0.534-0.239 0.534-0.533v-9.675l1.066-1.010v12.283h-22.389v-15.991zM7.996 13.899c-0.001 0-0.003 0-0.005 0-0.883 0-1.599 0.716-1.599 1.599s0.716 1.599 1.599 1.599c0.432 0 0.824-0.172 1.112-0.45l-0 0 1.853 0.93c0.215 0.107 0.476 0.057 0.636-0.122l3.939-4.432 3.872 2.902c0.208 0.155 0.498 0.139 0.686-0.039l3.365-3.188v8.131h-18.123v-12.261h18.123v2.661l-3.771 3.572-3.904-2.927c-0.088-0.067-0.2-0.107-0.32-0.107-0.158 0-0.3 0.069-0.398 0.178l-0 0.001-3.993 4.493-1.493-0.746c0.011-0.064 0.017-0.128 0.020-0.193 0-0.883-0.716-1.599-1.599-1.599v0zM8.529 15.498c0 0.294-0.239 0.533-0.533 0.533s-0.533-0.239-0.533-0.533v0c0-0.294 0.239-0.533 0.533-0.533s0.533 0.239 0.533 0.533v0zM11.727 24.026h5.33v0.533c0 0.294-0.238 0.533-0.533 0.533h-4.265c-0.294 0-0.533-0.239-0.533-0.533v0-0.533zM1.067 24.56c0-0.294 0.238-0.533 0.533-0.533h9.062v0.533c0 0.883 0.716 1.599 1.599 1.599v0h4.265c0.883 0 1.599-0.716 1.599-1.599v0-0.533h9.062c0.294 0 0.533 0.239 0.533 0.533v2.132c0 0.294-0.239 0.533-0.533 0.533h-25.586c-0 0-0 0-0 0-0.294 0-0.533-0.239-0.533-0.533 0 0 0 0 0 0v0-2.132z"></path>
    </symbol>
    <symbol id="envelope" viewBox="0 0 32 32">
      <path d="M29 4H3C1.346 4 0 5.346 0 7v18c0 1.654 1.346 3 3 3h26c1.654 0 3-1.346 3-3V7c0-1.654-1.346-3-3-3zm0 2c.136 0 .266.028.384.078L16 17.678 2.616 6.078C2.729 6.029 2.861 6 3 6h26zm0 20H3c-.552 0-1-.448-1-1V8.19l13.344 11.566c.175.152.404.245.656.245s.481-.093.657-.246l-.001.001L30 8.19V25c0 .552-.448 1-1 1z" />
    </symbol>
    <symbol id="facebook-1" viewBox="0 0 32 32">
      <path d="M21.328 5.312h2.923V.224C23.019.081 21.591 0 20.144 0h-.157.008c-4.213 0-7.099 2.65-7.099 7.52V12H8.25v5.688h4.646V32h5.699V17.69h4.459l.709-5.688h-5.17V8.08c0-1.643.443-2.768 2.734-2.768z" />
    </symbol>
    <symbol id="instagram-2" viewBox="0 0 32 32">
      <path d="M31.968 9.408c-.074-1.701-.349-2.869-.742-3.882-.424-1.111-1.054-2.059-1.85-2.837l-.001-.001c-.78-.792-1.724-1.419-2.778-1.827l-.054-.018C25.524.449 24.362.176 22.661.101 20.949.019 20.405 0 16.059 0c-4.344 0-4.888.019-6.595.094-1.699.074-2.869.349-3.88.742-1.112.424-2.06 1.054-2.839 1.85l-.001.001c-.791.78-1.418 1.724-1.825 2.778l-.018.054C.506 6.538.232 7.7.157 9.401c-.082 1.712-.101 2.256-.101 6.602 0 4.344.019 4.888.094 6.595.075 1.701.35 2.869.744 3.882.426 1.11 1.055 2.057 1.849 2.837l.001.001c.8.813 1.77 1.443 2.832 1.843 1.019.395 2.182.67 3.882.744 1.707.075 2.251.094 6.595.094 4.346 0 4.89-.019 6.595-.094 1.701-.074 2.869-.349 3.882-.742 2.157-.85 3.833-2.526 4.664-4.628l.019-.055c.394-1.019.669-2.182.744-3.882.075-1.707.093-2.251.093-6.595s-.006-4.888-.08-6.595zm-2.88 13.066c-.07 1.563-.333 2.406-.55 2.97-.552 1.399-1.64 2.486-3.004 3.024l-.036.012c-.56.219-1.411.482-2.968.55-1.688.075-2.194.094-6.464.094-4.269 0-4.782-.019-6.464-.094-1.563-.069-2.406-.331-2.97-.55-.721-.269-1.334-.676-1.836-1.192l-.001-.001c-.517-.503-.924-1.117-1.184-1.803L3.6 25.45c-.218-.563-.48-1.413-.549-2.97-.075-1.688-.094-2.195-.094-6.464 0-4.27.019-4.784.094-6.464.069-1.563.331-2.406.549-2.97.269-.722.678-1.337 1.198-1.837l.002-.002c.504-.517 1.119-.923 1.806-1.182l.034-.011c.56-.219 1.411-.48 2.968-.55 1.688-.074 2.195-.093 6.464-.093 4.275 0 4.782.019 6.464.093 1.563.069 2.406.331 2.97.55.693.256 1.325.662 1.837 1.194.531.52.938 1.144 1.195 1.84.218.56.48 1.411.549 2.968.075 1.688.094 2.194.094 6.464 0 4.269-.019 4.768-.094 6.458z" />
      <path d="M16.059 7.782c-4.539.002-8.218 3.682-8.219 8.221.091 4.471 3.737 8.06 8.221 8.06s8.13-3.589 8.221-8.052v-.009c-.001-4.54-3.681-8.22-8.221-8.221zm0 13.552c-2.945 0-5.332-2.388-5.332-5.333s2.388-5.333 5.333-5.333h.001c2.946 0 5.334 2.388 5.334 5.334s-2.388 5.334-5.334 5.334z" />
      <path d="M26.525 7.458c0 1.06-.86 1.92-1.92 1.92s-1.92-.86-1.92-1.92.86-1.92 1.92-1.92 1.92.86 1.92 1.92z" />
    </symbol>
    <symbol id="laptop" viewBox="0 0 32 32">
      <path d="M1.599 28.291h25.586c.883 0 1.599-.716 1.599-1.599V24.56c0-.883-.716-1.599-1.599-1.599h-.533V9.667l3.028-2.868c.207.104.452.166.711.166.888 0 1.608-.72 1.608-1.608s-.72-1.608-1.608-1.608c-.888 0-1.608.72-1.608 1.608 0 .247.056.481.155.69l-.004-.01-2.281 2.162v-1.23c0-.883-.716-1.599-1.599-1.599H3.731c-.883 0-1.599.716-1.599 1.599v15.992h-.533C.716 22.961 0 23.677 0 24.56v2.132c0 .883.716 1.599 1.599 1.599zM30.384 4.837c.294 0 .533.239.533.533s-.239.533-.533.533c-.294 0-.533-.239-.533-.533s.239-.533.533-.533zM3.198 6.969c0-.294.239-.533.533-.533h21.323c.294 0 .533.239.533.533v2.239l-1.066 1.013V8.036c0-.295-.239-.534-.534-.534H4.798c-.294 0-.534.239-.534.533v13.327c0 .294.239.533.534.533h19.189c.295 0 .534-.239.534-.533v-9.675l1.066-1.01V22.96H3.198V6.97zm4.798 6.93h-.005c-.883 0-1.599.716-1.599 1.599s.716 1.599 1.599 1.599c.432 0 .824-.172 1.112-.45l1.853.93c.215.107.476.057.636-.123l3.939-4.431 3.872 2.902c.208.155.498.139.686-.039l3.365-3.188v8.131H5.331V8.568h18.123v2.661l-3.771 3.572-3.904-2.927c-.088-.067-.2-.107-.32-.107-.158 0-.3.069-.398.178v.001l-3.993 4.493-1.493-.746c.011-.064.017-.128.02-.193 0-.883-.716-1.599-1.599-1.599zm.533 1.599c0 .294-.239.533-.533.533s-.533-.239-.533-.533c0-.294.239-.533.533-.533s.533.239.533.533zm3.198 8.528h5.33v.533c0 .294-.238.533-.533.533h-4.265c-.294 0-.533-.239-.533-.533v-.533zm-10.66.534c0-.294.238-.533.533-.533h9.062v.533c0 .883.716 1.599 1.599 1.599h4.265c.883 0 1.599-.716 1.599-1.599v-.533h9.062c.294 0 .533.239.533.533v2.132c0 .294-.239.533-.533.533H1.601c-.294 0-.533-.239-.533-.533V24.56z" />
    </symbol>
    <symbol id="linkedin-1" viewBox="0 0 32 32">
      <path d="M31.992 32H32V20.262c0-5.741-1.237-10.163-7.947-10.163-3.227 0-5.392 1.77-6.277 3.45h-.093v-2.914h-6.365v21.363h6.627V21.42c0-2.786.528-5.48 3.978-5.48 3.398 0 3.448 3.179 3.448 5.658V32h6.621zM.528 10.635h6.635V32H.528V10.635zM3.843 0C1.72 0 0 1.721 0 3.843c0 2.12 1.722 3.878 3.843 3.878 2.12 0 3.842-1.757 3.842-3.878S5.965.002 3.844 0z" />
    </symbol>
    <symbol id="satellite" viewBox="0 0 30 32">
      <path d="m29.859 22.098-8.443-8.505.937-4.616c.225.09.485.144.758.146h.033c1.192 0 2.159-.967 2.159-2.159s-.967-2.159-2.159-2.159c-1.192 0-2.159.967-2.159 2.159 0 .259.046.508.13.739l-.005-.015-4.96.606L8.059.161C7.963.063 7.83.002 7.683.001c-.14.001-.274.057-.373.155L5.798 1.66c-.096.097-.156.23-.156.377s.06.281.156.377l.814.825c-1.143 2.062-1.816 4.522-1.816 7.139 0 4.106 1.656 7.824 4.336 10.525l-.001-.001c.043.041.092.074.146.097-.032.164-.051.353-.052.546v6.188h-6.4c-1.472.001-2.666 1.194-2.667 2.666v1.067c0 .295.239.534.534.534h24.534c.294 0 .533-.239.533-.534v-1.067c-.002-1.472-1.195-2.665-2.666-2.666h-6.4v-2.742c1.003.21 2.024.317 3.049.32 2.58-.003 5.005-.663 7.117-1.822l-.077.039.818.823c.099.101.235.159.376.16.14-.001.274-.057.373-.155l1.512-1.504c.096-.097.156-.23.156-.377s-.06-.281-.156-.377zM22.366 6.233c.193-.192.459-.31.752-.31.589 0 1.067.478 1.067 1.066s-.477 1.066-1.067 1.066h-.004c-.587-.003-1.061-.479-1.061-1.066 0-.295.12-.563.314-.756h-.002zM21.11 9.737l-.598 2.946-1.175-1.183 1.774-1.763zm-.606-.902-1.92 1.909-1.486-1.493 3.406-.416zM23.09 28.8c.884 0 1.6.716 1.6 1.6v.534H1.224V30.4c0-.884.716-1.6 1.6-1.6h20.267zm-7.467-2.134v1.067h-5.334v-1.067h5.334zM10.29 25.6v-4.053c0-1.294 1.196-2.346 2.666-2.346s2.667 1.053 2.667 2.346V25.6H10.29zm6.4-1.696v-2.357c0-1.882-1.675-3.413-3.733-3.413h-.058c-1.353 0-2.54.707-3.213 1.771l-.009.016c-2.36-2.482-3.812-5.846-3.812-9.55 0-2.314.567-4.496 1.569-6.414l-.036.077L26 22.743c-1.823.947-3.979 1.502-6.266 1.502-1.079 0-2.128-.124-3.136-.357l.093.018zm11.289-.684L6.922 2.039l.754-.752 7.935 7.98c.004 0 .006.007.01.01l13.115 13.191-.757.752z" />
    </symbol>
    <symbol id="smartphone" viewBox="0 0 32 32">
      <path d="M23 0H9C7.346 0 6 1.346 6 3v26c0 1.654 1.346 3 3 3h14c1.654 0 3-1.346 3-3V3c0-1.654-1.346-3-3-3zM9 2h14c.552 0 1 .448 1 1v21H8V3c0-.552.448-1 1-1zm14 28H9c-.552 0-1-.448-1-1v-3h16v3c0 .552-.448 1-1 1z" />
      <path d="M10.708 27.478c.18.163.293.399.293.66s-.113.497-.292.659l-.001.001c-.186.17-.435.275-.708.275s-.522-.104-.709-.275l.001.001c-.18-.163-.293-.399-.293-.66s.113-.497.292-.659l.001-.001c.186-.17.435-.275.708-.275s.522.104.709.275l-.001-.001z" />
    </symbol>
    <symbol id="twitter-1" viewBox="0 0 32 32">
      <path d="M32 6.078c-1.1.493-2.376.857-3.713 1.028l-.068.007c1.36-.817 2.382-2.078 2.873-3.579l.013-.046c-1.197.722-2.591 1.273-4.076 1.573l-.084.014c-1.2-1.279-2.9-2.076-4.787-2.076-3.622 0-6.558 2.936-6.558 6.558v.004c0 .52.043 1.021.152 1.496-5.454-.266-10.28-2.88-13.522-6.861-.564.949-.899 2.092-.902 3.313v.001c0 2.272 1.171 4.286 2.914 5.451-1.091-.03-2.107-.325-2.994-.823l.033.017v.072c.003 3.165 2.236 5.807 5.213 6.44l.043.008c-.499.136-1.071.215-1.662.215h-.061.003c-.419 0-.843-.024-1.242-.112.85 2.598 3.261 4.509 6.13 4.57-2.215 1.746-5.045 2.8-8.122 2.8H1.57h.001-.062c-.531 0-1.055-.034-1.569-.099l.061.006c2.826 1.846 6.287 2.944 10.004 2.944h.063-.003c12.072 0 18.672-10 18.672-18.669 0-.288-.01-.57-.024-.848 1.299-.936 2.39-2.064 3.258-3.355l.03-.047z" />
    </symbol>
    <symbol id="facebook" viewBox="0 0 32 32">
      <path d="M19 6h5V0h-5c-3.86 0-7 3.14-7 7v3H8v6h4v16h6V16h5l1-6h-6V7c0-.542.458-1 1-1z" />
    </symbol>
    <symbol id="instagram" viewBox="0 0 32 32">
      <path d="M16 2.881c4.275 0 4.781.019 6.462.094 1.563.069 2.406.331 2.969.55.744.288 1.281.638 1.837 1.194.563.563.906 1.094 1.2 1.838.219.563.481 1.412.55 2.969.075 1.688.094 2.194.094 6.463s-.019 4.781-.094 6.463c-.069 1.563-.331 2.406-.55 2.969-.288.744-.637 1.281-1.194 1.837-.563.563-1.094.906-1.837 1.2-.563.219-1.413.481-2.969.55-1.688.075-2.194.094-6.463.094s-4.781-.019-6.463-.094c-1.563-.069-2.406-.331-2.969-.55-.744-.288-1.281-.637-1.838-1.194-.563-.563-.906-1.094-1.2-1.837-.219-.563-.481-1.413-.55-2.969-.075-1.688-.094-2.194-.094-6.463s.019-4.781.094-6.463c.069-1.563.331-2.406.55-2.969.288-.744.638-1.281 1.194-1.838.563-.563 1.094-.906 1.838-1.2.563-.219 1.412-.481 2.969-.55 1.681-.075 2.188-.094 6.463-.094zM16 0c-4.344 0-4.887.019-6.594.094-1.7.075-2.869.35-3.881.744-1.056.412-1.95.956-2.837 1.85-.894.888-1.438 1.781-1.85 2.831C.444 6.538.169 7.7.094 9.4.019 11.113 0 11.656 0 16s.019 4.887.094 6.594c.075 1.7.35 2.869.744 3.881.413 1.056.956 1.95 1.85 2.837.887.887 1.781 1.438 2.831 1.844 1.019.394 2.181.669 3.881.744 1.706.075 2.25.094 6.594.094s4.888-.019 6.594-.094c1.7-.075 2.869-.35 3.881-.744 1.05-.406 1.944-.956 2.831-1.844s1.438-1.781 1.844-2.831c.394-1.019.669-2.181.744-3.881.075-1.706.094-2.25.094-6.594s-.019-4.887-.094-6.594c-.075-1.7-.35-2.869-.744-3.881-.394-1.063-.938-1.956-1.831-2.844-.887-.887-1.781-1.438-2.831-1.844-1.019-.394-2.181-.669-3.881-.744-1.712-.081-2.256-.1-6.6-.1z" />
      <path d="M16 7.781c-4.537 0-8.219 3.681-8.219 8.219s3.681 8.219 8.219 8.219 8.219-3.681 8.219-8.219c0-4.537-3.681-8.219-8.219-8.219zm0 13.55c-2.944 0-5.331-2.387-5.331-5.331s2.387-5.331 5.331-5.331c2.944 0 5.331 2.387 5.331 5.331S18.944 21.331 16 21.331zM26.462 7.456c0 1.06-.859 1.919-1.919 1.919s-1.919-.859-1.919-1.919.859-1.919 1.919-1.919 1.919.859 1.919 1.919z" />
    </symbol>
    <symbol id="twitter" viewBox="0 0 32 32">
      <path d="M32 7.075c-1.175.525-2.444.875-3.769 1.031 1.356-.813 2.394-2.1 2.887-3.631-1.269.75-2.675 1.3-4.169 1.594C25.749 4.794 24.043 4 22.155 4c-3.625 0-6.563 2.938-6.563 6.563 0 .512.056 1.012.169 1.494-5.456-.275-10.294-2.888-13.531-6.862-.563.969-.887 2.1-.887 3.3 0 2.275 1.156 4.287 2.919 5.463-1.075-.031-2.087-.331-2.975-.819v.081c0 3.181 2.263 5.838 5.269 6.437-.55.15-1.131.231-1.731.231-.425 0-.831-.044-1.237-.119.838 2.606 3.263 4.506 6.131 4.563-2.25 1.762-5.075 2.813-8.156 2.813-.531 0-1.05-.031-1.569-.094 2.913 1.869 6.362 2.95 10.069 2.95 12.075 0 18.681-10.006 18.681-18.681 0-.287-.006-.569-.019-.85 1.281-.919 2.394-2.075 3.275-3.394z" />
    </symbol>
    <symbol id="linkedin2" viewBox="0 0 32 32">
      <path d="M12 12h5.535v2.837h.079c.77-1.381 2.655-2.837 5.464-2.837C28.92 12 30 15.637 30 20.367V30h-5.769v-8.54c0-2.037-.042-4.657-3.001-4.657-3.005 0-3.463 2.218-3.463 4.509V30H12V12zM2 12h6v18H2V12zM8 7c0 1.657-1.343 3-3 3S2 8.657 2 7s1.343-3 3-3 3 1.343 3 3z" />
    </symbol>
    <symbol id="close" viewBox="0 0 18 18">
      <path d="M15 4.10786L13.8921 3L9.5 7.39214L5.10786 3L4 4.10786L8.39214 8.5L4 12.8921L5.10786 14L9.5 9.60786L13.8921 14L15 12.8921L10.6079 8.5L15 4.10786Z" />
    </symbol>
    <symbol id="person" viewBox="0 0 18 18">
      <path d="M9 9C10.6575 9 12 7.6575 12 6C12 4.3425 10.6575 3 9 3C7.3425 3 6 4.3425 6 6C6 7.6575 7.3425 9 9 9ZM9 10.5C6.9975 10.5 3 11.505 3 13.5V14.25C3 14.6625 3.3375 15 3.75 15H14.25C14.6625 15 15 14.6625 15 14.25V13.5C15 11.505 11.0025 10.5 9 10.5Z" />
    </symbol>
    <symbol id="phone" viewBox="0 0 18 18">
      <path d="M13.996 11.1226L12.1579 10.9127C11.7164 10.862 11.2822 11.014 10.971 11.3252L9.63945 12.6568C7.59144 11.6147 5.91251 9.94296 4.87041 7.8877L6.20922 6.54888C6.5204 6.2377 6.67237 5.80349 6.62171 5.36205L6.41185 3.53836C6.325 2.80745 5.70988 2.25745 4.97173 2.25745H3.71976C2.902 2.25745 2.22175 2.93771 2.2724 3.75547C2.65595 9.93572 7.59868 14.8712 13.7717 15.2548C14.5894 15.3054 15.2697 14.6252 15.2697 13.8074V12.5555C15.2769 11.8245 14.7269 11.2094 13.996 11.1226Z" />
    </symbol>
    <symbol id="email" viewBox="0 0 18 18">
      <path d="M15 3H3C2.175 3 1.5075 3.675 1.5075 4.5L1.5 13.5C1.5 14.325 2.175 15 3 15H15C15.825 15 16.5 14.325 16.5 13.5V4.5C16.5 3.675 15.825 3 15 3ZM14.7 6.1875L9.3975 9.5025C9.1575 9.6525 8.8425 9.6525 8.6025 9.5025L3.3 6.1875C3.1125 6.0675 3 5.865 3 5.6475C3 5.145 3.5475 4.845 3.975 5.1075L9 8.25L14.025 5.1075C14.4525 4.845 15 5.145 15 5.6475C15 5.865 14.8875 6.0675 14.7 6.1875Z" />
    </symbol>
    <symbol id="send" viewBox="0 0 24 24">
      <path d="M24 0L0 13.5L7.66994 16.3407L19.5 5.25002L10.5017 17.3896L10.509 17.3923L10.5 17.3896V24.0001L14.8013 18.982L20.2501 21.0001L24 0Z" />
    </symbol>
    <symbol id="checkbox" viewBox="0 0 13 10">
      <path d="M1.95703 4.75166L1.88825 4.68604L1.81923 4.75141L0.93123 5.59258L0.854858 5.66492L0.930974 5.73753L4.42671 9.07236L4.49574 9.1382L4.56476 9.07236L12.069 1.91352L12.1449 1.84116L12.069 1.76881L11.1873 0.927644L11.1183 0.861826L11.0493 0.927611L4.49577 7.17353L1.95703 4.75166Z" />
    </symbol>
    <symbol id="icon-mobile-close" viewBox="0 0 32 32">
      <path d="M31.439 3.166l-3.166-3.166-12.553 12.553-12.553-12.553-3.166 3.166 12.553 12.553-12.553 12.553 3.166 3.166 12.553-12.553 12.553 12.553 3.166-3.166-12.553-12.553 12.553-12.553z"></path>
    </symbol>
    <symbol id="icon-burger-menu" viewBox="0 0 48 32">
      <path d="M0 5.333v-5.333h48v5.333h-48zM0 18.667h48v-5.333h-48v5.333zM0 32h48v-5.333h-48v5.333z"></path>
    </symbol>
    <symbol id="birzeit" viewBox="0 0 346.14 345.64">
      <g id="Layer_2" data-name="Layer 2">
        <path d="M172.91 345.64C77.29 345.63-.13 268.13 0 172.56.13 77.42 77.81-.25 173.07 0c99.52.26 173.63 81.62 173.06 173.48a172.84 172.84 0 0 1-173.22 172.16Z" class="cls-1" />
        <path d="M173 339.28c-91.8 0-166.35-74.6-166.35-166.37 0-92 74.66-166.46 166.85-166.32 91.75.14 166.35 74.9 166.21 166.57S264.77 339.33 173 339.28Z" class="cls-2" />
        <path d="M10.29 172.54C10.47 82.61 83.61 9.92 173.61 10.23A162.66 162.66 0 0 1 336 173.51c-.24 89.82-73.49 162.41-163.57 162.08-89.77-.32-162.33-73.31-162.14-163.05Z" class="cls-3" />
        <path d="M332.29 173.28c-.14 87.9-71.3 158.68-159.46 158.6a159 159 0 0 1-159-159.64C14 84.5 85.75 13.56 174.13 13.77c87.37.23 158.3 71.76 158.16 159.51Z" style="fill:#fefefe" />
        <path d="M244.12 73.37c-.09 2.44 4.68 2.59 2.72 6-1.45 2.49-3.55 3.26-6.25 3.1a13.87 13.87 0 0 0-2.61.36c2.34 5.29 6.35 5.13 10.53 4 3.66-1 7.16-2.64 10.85-3.51 4.51-1.07 6.19.55 5.92 5.19a13.91 13.91 0 0 1-.81 3.87c-1.08 3-2.15 6.63-5.69 6.87s-4.61-3.46-5.68-6.1c-1.28-3.17-2.17-4.38-5.83-2.26-5.52 3.21-8.58 2.33-12.16-3.19-2.07-3.2-4.16-3.89-7.71-3.13a47.59 47.59 0 0 1-20.3-.05c-7.89-1.71-14.28-5.53-17.38-13.35-1.57-4-3.7-3.64-6.4-1.48-3.49 2.78-5.09 6.91-7.39 10.54-3.4 5.39-5.73 5.33-8.7-.25-2.71-5.07-2.53-10.54-2-16.08-2 0-2.36 1.71-3.25 2.73-6.14 7.06-12.74 13.57-21.22 17.83-11.69 5.86-20.48 4.43-29.78-4.74-.93-.92-1.93-1.78-2.92-2.67-2.3 3.07-3.45 5.76-.58 9.23 1.69 2 1.13 5.13.69 7.76-1.15 6.87-2.24 13.76-3.71 20.56-1.55 7.19-9.51 19.27-15.84 24.54-.29-2.13 1-3.48 1.67-5 6.23-12.92 11.15-26.23 12.28-40.71.27-3.44.35-6.24-4.16-6.66-3.62-.34-3.25-3.58-4.31-6 7.8-.57 7.8-.57 8.23-8.12.07-1.3-.21-2.9 1.35-3.44s2.95.66 3.68 1.92c8.82 15.32 24 13.25 35.83 5.84a65.77 65.77 0 0 0 20.66-19.87c2-3 2.66-5.43-1.25-7.75a9.15 9.15 0 0 1-4.86-7.6c-.05-1.35.52-3 1.66-1.91 2 1.86 7.84-.61 6.28 5.38-.11.42 1.3 1.35 2.12 1.87 4.15 2.63 4.25 5.73 1.65 9.66-3.88 5.86-3.56 12.28-1.24 18.55 1.52 4.11 3.73 4.26 6.4.78s4.1-8 7.39-11.17c4.89-4.77 7-4.52 10.38 1.4C199.59 79 213.83 82.42 227 80.29c2.17-.35 2.34-1.27 1.09-3a8.17 8.17 0 0 0-6.77-3.85c1.35-3.75 3.75-4.94 7.53-4.82 5.66.17 10.42 2.68 15.36 4.85Z" class="cls-1" />
        <path d="M296 84.46c-7.77 4.84-14.48 9-21.15 13.16-12 7.55-14.26 14.07-8.8 27.1 5.17 12.31 13.07 22.82 22.73 32.87 1.23-4.69.05-8.16-1.44-11.67-.58-1.36-3.14-3.12-.29-4.48 2.38-1.13 5.18-1.94 6.84 1.41a26.81 26.81 0 0 1 2.26 9.62c.78 8.36.39 16.84 2.61 25-5.39-.36-7.79-3.34-9-8.21-1.09-4.37-3.91-7.88-7.2-11.11-7.93-7.8-15.49-15.94-20.68-26a59.5 59.5 0 0 1-5.31-13.35c-2.17-9-.66-13.11 7.09-18.19 7.47-4.91 15.14-9.54 22.73-14.28 2.53-1.58 5.29-2.16 9.61-1.87ZM36 165.35a6.23 6.23 0 0 1 3.55 3.07c4.75 7.49 14.25 7.32 18.81-.52 4.27-7.34 5.43-15.62 6.28-23.87.94-9.23 2-18.53-.12-27.75-.66-2.89 1.17-2.15 2.49-1.91 2.89.52 5.33.26 6.62-2.82a17.7 17.7 0 0 0 .87-11.65c-.3-1.1-1.79-.89-2.65-.66-3.71 1-4.9-1.47-6.16-4.1 8.92-2.64 14.57 1.46 14.13 10.53-.27 5.63-.89 11.4-8.09 13.1-2.31.54-.91 2.77-.79 4.13a130 130 0 0 1-2.47 38.1 38.85 38.85 0 0 1-4 11.19c-4.13 7.3-10.09 9.07-17.7 5.32-3.62-1.78-6.41-4.72-11.45-4.06-4 .52-7.54-3-10.12-6.43-1.54-2.05-2.84-4.27-4.3-6.5 2.25-.81 2.72 1 3.66 2 1.82 1.94 3.52 4 5.45 5.79 1.2 1.12 2.77 2.1 4.51 1.57 2.25-.7.8-2.88 1.48-4.53Z" class="cls-3" />
        <path d="M66.55 84.51c5.32 1.21 10.38 1.79 15 3.58 4.26 1.65 6.47 5.83 6.85 10.3 1.12 13.3.77 26.52-3.89 39.27-.43 1.18-.44 2.78-2.74 2.46 1.7-10.07 1.94-20.26 2.46-30.43a60 60 0 0 0 0-7c-.87-13.58.53-11.14-11.7-12.21-3.53-.28-5.53-1.34-5.98-5.97Z" style="fill:#262223" />
        <path d="M202 61.89a3.46 3.46 0 0 1 3.75-2.55q28.17.38 56.32.81c.23 0 .45.37.67.57-3.12 2.06-48.38 2.94-60.74 1.17Z" style="fill:#312d2e" />
        <path d="M195.13 54.54a3.9 3.9 0 0 1 4-2.39H257c-2.12 3-3.75 3.31-5.55 3.3q-27.42-.18-54.84-.37a5 5 0 0 1-1.48-.54Z" class="cls-7" />
        <path d="M274.35 107.86a4.73 4.73 0 0 1 4.85 1l42.14 38.51a5.38 5.38 0 0 1-5.41-1.5q-20.55-18.37-41.05-36.79c-.21-.18-.25-.57-.53-1.22Z" style="fill:#2a2727" />
        <path d="M51.68 95.15c-.5 13.34-4.75 26.17-6.09 39.77-2.87-1.56-1.83-3.67-1.54-5.38 2-11.53 4.11-23 6.18-34.57Z" style="fill:#3b3839" />
        <path d="M80.54 160.79c.15 1.69-.87 2.06-1.76 2.38-1.82.65-2.27 1.69-1.19 3.33 1.44 2.21.14 3.11-1.74 3.95-1.31.58-2.53 1.31-3.15-.59s-3-3.76.29-5.31c1.39-.66 2.17-1.41 1.26-3-.74-1.33-1.5-2.77.52-3.7 1.12-.52 2.41-1.92 3.49-.93s1.66 2.75 2.28 3.87ZM52.14 140.64c-2.2.19-2.2-1.45-2.78-2.47-.74-1.32-1.55-2.77.39-3.74 1.61-.81 2.94-1.6 1.62-3.61-1.54-2.34 0-3.07 1.81-4s2.83-.74 3.41 1.14c.49 1.61 2.85 3.47-.45 4.73-1.69.65-2.36 1.69-1.32 3.36 2.3 3.77-1.74 3.23-2.68 4.59Z" class="cls-10" />
        <path d="M124.53 95.92c-.2 2-.13 4.3-3.24 3.58-1.89-.43-2.77.33-2.84 2.24-.09 2.33-1.44 2.59-3.39 2.11-1.49-.36-3.09-.41-2.5-2.63.43-1.6-.13-4.1 2.62-3.88 2.19.17 3.32-.12 3.52-2.62.2-2.34 1.92-2 3.72-1.69s2.68 1.05 2.11 2.89Z" style="fill:#2d292a" />
        <path d="M151.06 58.77c-1.58-2.91-2.87-5.36-4.24-7.76-1.51-2.65-3.56-4.91-6.57-5.65s-4.13-2.93-5.42-5.31c8.73-.05 15.8 7.95 16.23 18.72Z" style="fill:#333031" />
        <path d="M188.24 46.44c3.11-1.37 5.52-2.34 7.85-3.49 2.09-1 4.45-1.8 2.63-5.22-.55-1-.12-4 2.05-4.29 2.55-.4 4.52 1.19 5.17 3.68s-.59 3.69-3.26 3.37c-1.59-.19-2.11 1.39-3 2.24-3.1 2.79-6.51 4.46-11.44 3.71Z" class="cls-13" />
        <path d="M177.93 30.14c1.27 1.19 4.18 2.58 3.63 3.53-1.9 3.32-.15 5.16 1.54 7.5.3.41-1 2.3-1.89 3.18-1.2 1.19-2.09-.19-2.85-.89-1-.9-3.11-1.67-1.73-3.4 1.7-2.14 1.15-3.46-.8-4.76-1.26-.83-1.14-1.83-.3-2.85.7-.84.98-2.13 2.4-2.31Z" style="fill:#292526" />
        <path d="M217.5 48.24c-.54-2.16 1.68-5.39-2.7-5.91-1.17-.14-1-2.21-.44-3.5a2.36 2.36 0 0 1 2.3-1.56 2.59 2.59 0 0 1 2.34 2.25 43.58 43.58 0 0 1 .55 4.59c1.58-1.73 2.86-3.18 4.18-4.57.84-.88 1.89-1.5 3.06-.84.39.21.56 1.13.53 1.71-.07 1.2-1 3-1.64 2.73-5.15-2.05-4.68 4.08-8.18 5.1Z" style="fill:#413d3e" />
        <path d="M136.7 68.07c-11.42-10.75-11.42-10.75-8.32-16-.69-2.79-2.76 2.85-3.29-.58-.17-1.09-.25-2.63 1.12-2.92 1.91-.41 4-.58 5.59 1 1.13 1.13 1 2.42-.43 3.32-4.71 3-2.92 5.49.47 8.22 1.93 1.51 4.08 3.17 4.86 6.96Z" class="cls-16" />
        <path d="M258.33 75.26c.36-2.35 4.37-3.88.71-6.6-.93-.68-.13-2.48 1.15-3.33.86-.57 1.72-1 2.74-.39A2.44 2.44 0 0 1 264 68c-.45 1.37-1.16 2.67-1.95 4.43 2.3-.71 4.24-1.45 6.24-1.88 1.21-.26 3-.51 2.86 1.56-.07 1.5-2.07 2.88-2.62 2.38-3.69-3.4-6.53.67-10.2.77Z" class="cls-13" />
        <path d="M79.41 76.51c-2.19-.49-3.42-4.21-6.15-1-.81 1-2.5 0-3.27-1.3a2.49 2.49 0 0 1-.13-2.82c1-1.34 2.36-1.15 3.59-.58a36.05 36.05 0 0 1 3.89 2.42c-.59-2.48-1.2-4.54-1.54-6.64-.21-1.32 0-3 1.8-2.81s2.84 2.79 2.21 3.25c-4.25 3.07.52 6.19-.4 9.48Z" style="fill:#353232" />
        <path d="m222.25 88.63 29.05 13-.58 1.45c-10-3.37-19.17-8.81-29-12.6.18-.61.35-1.23.53-1.85Z" class="cls-18" />
        <path d="M100.93 58.82c-.86-2.55 1.47-4.4.4-6.76-2.11.87-3.43 2.68-4.89 4.3-1.23-2.62 3-9.67 5.8-9.55 1.24.06 1.51 1.25 1.74 2.16a9.12 9.12 0 0 1-3.05 9.85Z" style="fill:#343132" />
        <path d="M311 160.27c-1.74 1.14-3.74.86-6.17 1.47.95-2.59 5.22-4 1.74-7.09-.57-.51.78-2.28 2.21-2.81a2.16 2.16 0 0 1 2.69.5c1 1.2 0 2.47.08 3.64s-4.41 1.76-.57 3.34q.53.3.36.63c-.07.21-.18.32-.34.32Z" class="cls-20" />
        <path d="M140 52.24c2.69 1.68 4.6 3.76 3.7 7.18a2.14 2.14 0 0 1-3.13 1.46c-4-2-4.32-5.66-3.84-9.64.7 1.67 1.33 3.37 2.14 5 .52 1 1.42 2.14 2.69 1.08s-.22-1.54-.77-2.19-2.03-1.39-.79-2.89Z" style="fill:#413e3f" />
        <path d="M285.94 103.84c6.78-1.41 4.86-9.49 9.91-12.71.32 7.69-3.75 12.98-9.91 12.71Z" style="fill:#363333" />
        <path d="M162.34 79.1c-.88 1.85-1.38 4-3 4.12-2 .16-3.8-1.76-4.23-3.47s1.06-4.16 2.72-4 3.04 2.16 4.51 3.35Z" class="cls-23" />
        <path d="M275.67 118.79c-1.86 2.91-4.16 4.54-7.54 3.35a2.11 2.11 0 0 1-1.07-3c1.7-3.54 4.83-4.09 8.45-3.77-.18.4-.22.76-.39.83-2 .82-5.68 1.08-4.49 3.74s2.37-2.63 5.04-1.15Z" class="cls-24" />
        <path d="m44 151.71 2.26-.53c2-.42 5.48 1.48 5.67-.91.26-3.22-3.76.78-5-1.74 2.68-2 5.33-1.79 7.83.46a2 2 0 0 1 .21 3.08c-3.37 3.14-6.62.79-10.97-.36Z" class="cls-18" />
        <path d="M279.14 168.5c-1.43-.64-4.07.2-3.55-2.39.33-1.66.34-4.49 3.1-4.29 1.22.08 3.95-.33 3.47 2.31-.31 1.71-.36 4.12-3.02 4.37Z" style="fill:#2e2b2c" />
        <path d="M85 81.44c1.57 1.87 2.7 3.41 4 4.74.89.89 2.29 2.14 3.26.44.85-1.48-.83-1.67-1.88-2.11A9.1 9.1 0 0 1 88.46 83c1.86-1.16 3.07 0 4.17.86 1.79 1.38 3.39 3.3 1.7 5.46-1.82 2.32-3.87.81-5.52-.69A10.76 10.76 0 0 1 85 81.44Z" class="cls-26" />
        <path d="M57.06 82.16c2 1.27 3.72 2.71 4 4.59.19 1.54-1.67 3.52-2.91 3.47-2.22-.08-3.75-2.35-4-4.33-.1-1.13 1.85-2.46 2.91-3.73Z" class="cls-23" />
        <path d="M278.79 81.44c-.88 3.55-3.22 4.85-6.47 4a2.07 2.07 0 0 1-1.42-3.12c2.17-3.89 5.84-4.15 10.84-3.7-2.53.85-4.06 1.29-5.54 1.89-1.05.42-2.2.9-2.11 2.36a1.2 1.2 0 0 0 .4.87c1.54.87 1.8-.9 2.7-1.37.55-.24 1.07-.6 1.6-.93Z" class="cls-26" />
        <path d="M120.66 63.47c2.68 1.37 4.32 3.31 4 6.47-.13 1.49-1.18 2.69-2.64 2.36-3.91-.87-4.1-4.51-5.39-7.46.59-.12 1-.35 1.18-.23 1.61 1.24 2 5.27 4.08 4.08 2.98-1.69-2.8-2.57-1.23-5.22Z" class="cls-18" />
        <path d="M180.87 48.44c.41 1.84.5 2.15.54 2.47.27 2.1-1.39 5.84 1.29 5.9 3.42.07-1.42-3.56 1.23-5.13 1.84 2.57 2.2 5.18.3 7.84a2.07 2.07 0 0 1-3.42.26c-2.92-3.25-1.42-6.59.06-11.34Z" class="cls-24" />
        <path d="M35.73 155.15c1.09 0 2.33-.3 3.11 1.43-2.05 1-5.74.73-4.39 4.86.22.65-1.53 1.6-2.8 1.47a2.84 2.84 0 0 1-2.44-1.48 2.23 2.23 0 0 1 1-3 41.76 41.76 0 0 1 4.36-2.26c.36-.37.57-.9 1.16-1.02Z" class="cls-27" />
        <path d="M306.7 113.84c-.41.2-.81.41-1.22.6-1.61.72-4 .86-4.27 2.85s1.14 2 2.4.65c.64-.7 1.09-1.72 3.09-1.38-1.69 2.92-3.67 4.49-6.91 4a2.14 2.14 0 0 1-1.87-2.93c1.42-4.06 5.01-4.09 8.78-3.79Z" class="cls-28" />
        <path d="M34.35 136.63c4 2.13 3.68 5.54 2.44 9.24-.43-1.68-.87-3.36-1.33-5.12-1.61 1.3-1.79 3.18-2.33 5.05-2.32-3.17-2.32-3.17 1.22-9.17Z" class="cls-18" />
        <path d="M306.91 146.11a4.68 4.68 0 0 0-1.43.33c-1.32.79-4 1.43-2.88 3.14 1.59 2.4 2.28-1.24 3.71-1.4.43 0 .84-.17 1.38-.28 0 2-1.37 2.66-2.55 3.39-1.95 1.21-4.24 2-5.64-.4-1.5-2.54.61-3.87 2.6-4.88a25.37 25.37 0 0 1 2.77-1c.92-.08 2.2-.81 2.04 1.1Z" class="cls-29" />
        <path d="M247.24 67.61c-.17 1.32-2.79 4.4 1.6 2.44.67-.3.48-2.48 2-2.9-.19 5-1.73 6.4-6.77 6.22l.12.12c-1.36-2.88-.56-5.16 1.92-7 1-.19 1.44.1 1.13 1.12Z" class="cls-27" />
        <path d="M184.38 84.53c-.29 1.35-2.34 3.81 1.42 2.72.88-.26.44-2.84 2.61-3.27a6.32 6.32 0 0 1-4.34 6.48 2.22 2.22 0 0 1-2.92-1.18c-1.36-2.69.4-4.28 2.16-5.84.96-.22 1.38.08 1.07 1.09Z" class="cls-20" />
        <path d="M89 65.73c3.69 1.93 3.56 6 6.84 5.61 1.59-.18-.17-2 .89-3.06 2.27 1.54 3.1 3.72 1.2 5.61s-4 .31-5.26-1.51A75.15 75.15 0 0 1 89 65.73Z" class="cls-7" />
        <path d="M281.08 127.31c2.09 2.3 4.16-.75 6.31 0 .9.31 2 .11 2.59 1.08s.15 1.54-.52 2.13c-.94.82-2.85 1.43-3.1.89-2-4.36-5.18-.61-7.71-1.35.11-1.07.24-2.14 1.37-2.75a.62.62 0 0 1 1.06 0Z" style="fill:#423e3f" />
        <path d="M238.17 48.23c-1.41 1.65-3 2.82-5 1.11s-.78-3.6.49-5.17a11 11 0 0 1 5.23-3.82c.11 2.91-7.75 4.74-.72 7.88Z" class="cls-28" />
        <path d="M281.08 127.31h-1.06v-.49c.12-2-3.29-4.14.35-5.9 1.12-.55 2.4-.89 3.1.31 1.68 2.87-.56 4.44-2.39 6.08Z" style="fill:#343131" />
        <path d="M312.74 121.48c1.45.33 2.37 1.24 2.14 2.76s-.83 3.08-2.63 3.06a2.71 2.71 0 0 1-2.88-2.69c.06-1.9 1.63-2.71 3.37-3.13Z" class="cls-20" />
        <path d="M151.6 38.54c-.41-.61-.89-.93-1.62-.46-2 1.29-3.14.35-3.72-1.54-.41-1.32-.34-2.77 1.16-3.41 1.76-.76 2.78.59 3.67 1.78a19 19 0 0 1 1.38 2.61c.32.85-.07 1.11-.87 1.02Z" class="cls-16" />
        <path d="M118.48 45.53c-2.07 1.67-2.79 0-3.48-1.47a2.45 2.45 0 0 1 .73-3.11c1.25-.94 2.56-.44 3.49.66a23.91 23.91 0 0 1 1.83 2.89c-.63.91-1.86.31-2.57 1.03Z" style="fill:#353233" />
        <path d="m35.73 155.15-1.15 1c-1.95-.79-3.94-1.5-5.84-2.38-1-.48-2.21-1.12-1.85-2.55a2 2 0 0 1 1.38-1.13c1.12-.21 3.23-.07 3.1.6-.78 3.93 3.04 2.91 4.36 4.46Z" style="fill:#3e3b3c" />
        <path d="M285.63 136.82c4.49-.41 6.65-4.36 10.41-7.15-1.67 5.95-4.45 7.76-10.41 7.15Z" style="fill:#423f3f" />
        <path d="M310.92 129.62c2.77-.43 5-.85 7.23-1.09a2.34 2.34 0 0 1 2.76 1.47c.14.45-.3 1.23-.7 1.64-.85.88-2.92 1.19-3 .74-.95-3.48-4.21-.92-6.29-2.76Z" class="cls-29" />
        <path d="M118.48 45.53c.55-1.11 1.59-1 2.57-1 .74.48 1.36.7 1.36-.58a7.4 7.4 0 0 1 1-4.56c1 .43.53 1.59 1.11 2.23-.53 2.63-1.06 5.26-1.6 7.92-2.59-.54-1.44-4.45-4.44-4.01Z" style="fill:#585556" />
        <path d="M40.42 160.81c4.39-3.43 7.76-2.85 11.09 0-3.36-1.6-6.79.5-11.09 0Z" style="fill:#595757" />
        <path d="M311 160.27v-1a34.83 34.83 0 0 1 4.37-.78c1.11-.08 2.44.06 2.71 1.51a1.82 1.82 0 0 1-1.6 2.13c-.94.17-2.56 1.79-2.78-.83-.15-1.98-1.87-.39-2.7-1.03Z" style="fill:#3a3637" />
        <path d="M124.47 41.59c-.93-.46-1-1.38-1.11-2.23.2-1.58.86-3.14 2.64-2.42 1.41.56 1.38 2.3 1.15 3.84-.36 2.36-1.79.59-2.68.81Z" style="fill:#4d494a" />
        <path d="M154.27 33.41c.1-1.86.26-4.13 2.65-3.89 1.74.17 1.49 2.25 1.34 3.75-.22 2.18-2.52-.35-3 1.31-.91.15-1.46-.06-.99-1.17Z" class="cls-26" />
        <path d="m154.27 33.41 1 1.17c-.36 2.44-.72 4.87-1.11 7.55-2.11-.36-1.82-2.39-2.59-3.59l.87-1c1.81-.87.46-3.1 1.83-4.13Z" style="fill:#595657" />
        <path d="m184.38 84.53-1.07-1.09a7 7 0 0 1 6.08-3Z" style="fill:#5c595a" />
        <path d="M306.91 146.11c-.37-.94-1.33-.81-2-1.12 1.87-1.3 3.75-1 5.84-.22-1.01 1.91-2.49 1.43-3.84 1.34Z" style="fill:#918e8f" />
        <path d="m247.24 67.61-1.08-1.11c1.32-1.77 3-2.9 6.19-3.1Z" style="fill:#5e5b5b" />
        <path d="M239.38 78.15c-2.57.32-4.78 1.35-5.9-1.54-.27-.7-.12-1.74.22-1.67 1.98.44 4.13.71 5.68 3.21Z" style="fill:#dcdbdb" />
        <path d="M259.75 92.69c-1.62-1.93-3-3.13-2.27-5.17.06-.17.93-.27 1.27-.1 2.17 1.07 1.73 2.85 1 5.27Z" style="fill:#ecebeb" />
      </g>
      <g id="Layer_4" data-name="Layer 4">
        <text class="cls-45" transform="matrix(.65866 2.48416 -2.39717 .6356 31.89 199.87)">B</text>
        <text class="cls-45" transform="matrix(.99964 2.36762 -2.2847 .96463 39.15 224.32)">I</text>
        <text class="cls-45" transform="matrix(1.32057 2.20477 -2.12756 1.27433 44.8 237.75)">R</text>
        <text class="cls-45" transform="matrix(1.6908 1.93548 -1.8677 1.6316 58.56 259.69)">Z</text>
        <text class="cls-45" transform="matrix(1.99472 1.62049 -1.56374 1.92487 75.59 278.37)">E</text>
        <text class="cls-45" transform="matrix(2.19105 1.3432 -1.29617 2.11432 94.12 292.61)">I</text>
        <text class="cls-45" transform="matrix(2.35397 1.03136 -.99524 2.27154 106.52 300.19)">T</text>
        <text class="cls-45" transform="matrix(2.47 .71 -.69 2.38 129.21 309.34)"></text>
        <text class="cls-45" transform="matrix(2.54 .36 -.35 2.46 141.49 313.05)">U</text>
        <text class="cls-45" transform="matrix(2.56648 -.1345 .1298 2.4766 169.33 316.43)">N</text>
        <text class="cls-45" transform="matrix(2.52 -.51 .49 2.43 196.98 314.11)">I</text>
        <text class="cls-45" transform="matrix(2.42109 -.86211 .83192 2.3363 211.33 311.27)">V</text>
        <text class="cls-45" transform="matrix(2.23194 -1.2741 1.22949 2.15378 236.21 301.75)">E</text>
        <text class="cls-45" transform="matrix(1.98 -1.64 1.58 1.91 256.62 289.65)">R</text>
        <text class="cls-45" transform="matrix(1.65711 -1.9644 1.89561 1.59908 276.24 272.73)">S</text>
        <text class="cls-45" transform="matrix(1.37101 -2.17376 2.09764 1.323 291.78 253.2)">I</text>
        <text class="cls-45" transform="matrix(1.06 -2.34 2.26 1.02 299.53 240.89)">T</text>
        <text class="cls-45" transform="matrix(.62304 -2.49333 2.40602 .60123 309.41 218)">Y</text>
      </g>
      <g id="Layer_1" data-name="Layer 1">
        <text style="font-size:20px;font-family:NimbusSansNovusT-SemiBold,Nimbus Sans Novus T Semi;font-weight:600;letter-spacing:.17em;fill:#242021" transform="matrix(1.09 0 0 1.21 143.39 231.78)">
          1
          <tspan x="14.12" y="0" style="letter-spacing:.21em">9</tspan>
          <tspan x="29.04" y="0" style="letter-spacing:.18em">2</tspan>
          <tspan x="43.42" y="0" style="letter-spacing:.21em">4</tspan>
        </text>
        <path d="M184.21 125.14a10.58 10.58 0 0 0 5.16-3.59c1-1.14 1.85-2.49 3.63-1 .72.62 1.27-.13 1.58-.76.65-1.29 1.08-2.84 3-2.33 1.39.36 2.93 3.08 2.73 4.78-.12 1-.32 2-.52 2.93a2.27 2.27 0 0 0 2.42 2.88c1.17-.07 2.39.16 3.44-.59a.71.71 0 0 1 1 .12c.22.19.57.65.73.39.88-1.42 2.35-.61 3.44-1 1.49-.59 1.63.26 1.42 1.2a5.48 5.48 0 0 0 .09 2.7c.22.91-.07 1.58-1.19 1.65-1.68.11-2.05 1.43-2.21 2.73s.51 2.23 2 2.29a2 2 0 0 1 1.14.59c1.16 1.19 1.77.34 2.31-.6a4.16 4.16 0 0 0 .79-1.88c0-2.45 1.35-1.86 2.73-1.34 4.88 1.84 5 2.08 4.33 7.3a10.58 10.58 0 0 0 .09 4.48c.12.41.28 1 .78.94s.38-.69.41-1.07a10.38 10.38 0 0 1 4-7.38c2.71-2.29 5.82-1.36 6.61 2a22.53 22.53 0 0 1 1 4c.05 1.18 1.27 1.22 2.11 1.54a7.24 7.24 0 0 0 1.47.3c.9.13 2.16-.34 2 1.39-.14 1.55-.51 3.1-2.31 3.1-2.49 0-4.88 0-7 1.47a.93.93 0 0 1-.89 0c-1.64-1.49-2.63-.13-3.73.8a13.58 13.58 0 0 0-1.28 1.11c-.37.42-1.34.6-.9 1.39a1.75 1.75 0 0 0 2.18 1.06c2.58-1.05 5.22-.73 7.87-.55 1.62.1 3.52 2 3.44 3.62-.05.89.62 1.51.51 2.45a2.87 2.87 0 0 0-2.45 1.15 4.09 4.09 0 0 1-2.61 1.56c-1.75.32-3.52.53-5.29.76a2.05 2.05 0 0 1-1.95-.48c-2.32-2.92-5.56-1.87-8.67-2.42.37 1 1 .84 1.46 1s1.08.33 1.63.45a9.94 9.94 0 0 1 6.29 4.12 3.52 3.52 0 0 0 3.55 1.59c1.56-.15 3.14-.09 4.71-.09a2.17 2.17 0 0 1 2.24 1.1 2.41 2.41 0 0 1-.7 2.58 7.57 7.57 0 0 1-2.57 1.85c-.56.27-1.62.74-1.61.77.57 1.43-1.46 2.25-.84 3.59.47 1-.23 1.26-.9 1.4a15.74 15.74 0 0 1-9.06-.7 4.32 4.32 0 0 1-2.41-3c-.13-.43-.08-1.18-.72-1.18a1.36 1.36 0 0 0-1.16 1.11c-.4 2.12-1.92 2.55-3.71 2.77-1.41.17-2.4.1-3.13-1.52-.93-2.09-2.45-2.07-3.84-.24-.23.3-.4.75-.7.87a4.8 4.8 0 0 0-3.46 4.27c-.08.76-1 .83-1.71.4a7.78 7.78 0 0 1-2.62-2.64c-1.3-2.08-3.75-2.15-5-.11-.94 1.57-2.48 1.9-4.39.83a2.44 2.44 0 0 1-1.07-3.51 9.52 9.52 0 0 1 2.87-3.42c.28-.23.8-.46.65-.83-.25-.63-1-.6-1.55-.89s-.61 0-.84.37a50.52 50.52 0 0 0-2.7 4.44c-.62 1.35-.18 2.92-.15 4.37a2.36 2.36 0 0 1-1.93 2.54c-.59.18-.92.21-1.05 1-.5 2.73-.09 5.5-.43 8.24a.6.6 0 0 0 .19.49c2.07 1.73 3.44 4.51 6.7 4.44h.18c2.07 2.09 5.18 1.58 7.51 3a1.66 1.66 0 0 1 1 1.51c-.06.83-1 .74-1.16.74-3.75 0-3.06.44-4.55.43-3.6 0-7.13.93-10.74.69-.68 0-1.59-.18-2-.18a11.16 11.16 0 0 1-2.79 0s-1.68-.14-2.59-.13c-3.09 0-7.85-.33-9.15.3a96.6 96.6 0 0 0-11.19.37H147c.24-4.66 6-2.08 9.12-5.44 1.39.2 4.4-1.63 5.62-2 .69-.22 1.76-1.71 2.37-2.44 1.15-1.38 2.22-2.7 2.37-4.66.31-4-1-7.68-1.75-11.47-.23-1.17-.62-2.3-.84-3.47-.17-.89-.33-1.5-1.51-1.33-1.52.22-.43 1.34-1.14 2.13a2.65 2.65 0 0 0-.5 2.73c.76 2-1.69 2.39-2.64 1-.73-1.08-1.29-2.56-2.93-2s-2.11 1.88-2 3.5-1.43 1.28-2.32 1.51a1.65 1.65 0 0 1-2.28-1.32 13.91 13.91 0 0 0-1.58-4.59c-.93-1.46-1.84-1.51-2.91-.13a8.74 8.74 0 0 0-.76 1.29c-.93 1.73-2.34 2.34-4.67 2a34.82 34.82 0 0 0-9.51.06c-2.36.28-2.79-.61-2.59-2.24.29-2.35 1.63-3.35 4-3a7.24 7.24 0 0 0 3.89-.32c.71-.29 1.53-.7 1.44-1.56-.15-1.52.69-1.67 1.87-1.84 1.34-.2 2.8 0 4-.81.88-.59 1.93-1.24 1.37-2.52s-1.4-1-2.51-.59c-1.28.49-2-.42-2.11-1.63-.13-1.39-.65-2.5-2-2.88s-2 .7-2.57 1.54a2.47 2.47 0 0 1-2.94.93c-1.25-.27-2.6-.74-3.39 1.17-.32.76-1.75 1.07-2.68 1.58-1.18.65-2.56.81-3.59 1.88-.73.76-3-.18-4-1.7-1.91-3-4.66-3.38-7.83-2.88-1.33.22-2.85.58-3.72-1s0-2.87 1.12-3.8c2.4-2 4.68-4.24 8.23-3.84 1.19.14 1.54-.88 1.41-1.77-.38-2.64 1.2-3.87 3.2-4.93 2.28-1.21 4.54-2.44 7.21-2.49s3.58.56 4.1 3.27a1.93 1.93 0 0 0 .87 1.17c.93.7 1.92 1.33.76 2.67-.4.47.2.75.48 1.05s.66.71 1.41.27a7.89 7.89 0 0 1 2.83-1.05c1.39-.21 1.51-1.3 1.77-2.15s-.79-.93-1.32-1.24c-1.79-1-3.62-2-4.43-4.12-.71-1.86-.46-2.87 1.19-4 .1-.07.25-.07.34-.15 1.89-1.81 2.33-1.91 5.11-1.36.9.17 1.73-.59 2.69-.22.19.07.08-2.6-.28-2.81-.17-.09-.64.11-.59-.17.52-3.22-2-2.64-3.75-3.07a7.16 7.16 0 0 1-3.14-2c-.88-.84-.46-2 .93-2.37 1.19-.36 2.46-.46 3.68-.72 1.93-.41 2.17-.89 1.34-2.61-1.23-2.55-1.23-2.55 1.71-4.57 2-1.36 4.34-1.35 5.63.22.85 1 1.23 1.21 1.9-.12s2-1.18 3.16-1c.61.11 1.18.66 1.74.63 2.57-.13 3 1.25 2.61 3.35-.15.85-.14 1.6 1.07 1.72.66.06 1 .66 1.27 1.26a2 2 0 0 0 1.08 1.2c1.29.59 1.86.43 1.62-1.12-.22-1.39.1-2.92-1.29-3.94-.59-.43-.47-1 0-1.43a8.31 8.31 0 0 0 1.39-1.52c.31-.51.94-.89.13-1.86-.58-.69.12-2.19 1.35-2.69 3.86-1.61 7.68-3.32 11.63-4.7 2.69-1 3.6-.33 4.9 2.32a1.32 1.32 0 0 0 1.4.72c1.19-.07 2.38-.19 3.57-.23 1.39 0 1.85.61 1.2 1.87a11.55 11.55 0 0 0-1.31 3.4c-.25 1.44-1.93 1.59-3.12 2.08-.27.42-.84.39-1.39 1a19.35 19.35 0 0 1 3.02-.53Z" style="fill:#076324" />
        <path d="M184.21 125.14c-.46.43-1.17.11-1.67.61-.87.88-1.49.33-2.08-.5a6 6 0 0 1 2.18-.51c.42.53 1.07.19 1.57.4Z" style="fill:#d1e8d8" />
        <path d="M177.43 160.53a1.72 1.72 0 0 1 1 2c-.17 1.5-.4 3-.42 4.49 0 2 1.06 2.54 2.82 1.65a4.64 4.64 0 0 0 .66-.36c.71-.49 1.46-1.34 2.29-.53s.5 1.74 0 2.61a20.7 20.7 0 0 1-3.41 4.69c-.87.87-1.85 1.57-3.17 1.08a3.41 3.41 0 0 1-2.19-3c-.34-2.61.49-5.09 1-7.59a15.35 15.35 0 0 1 1.42-5.04Z" class="cls-2" />
        <path d="M150 140.44a17.09 17.09 0 0 1 1.76.49c.67.25.8.74.34 1.31-1.63 2-2.23 4.42-3 6.78-.1.29-.16.6-.25.89-.19.61-.37 1.38-1.07 1.37s-.75-.74-1-1.27a36.3 36.3 0 0 0-1.31-4c-.9-1.79 2.23-5.59 4.53-5.57Z" style="fill:#fcfdfd" />
        <path d="M153 158.17c.29 0 .58.1.88.12.75.05 1.36 1.26 2.12.52.58-.56.3-1.56.25-2.35a2.64 2.64 0 0 1 2.11-2.57c1.71-.41 2.55 1.23 3.2 2.57s-.54 1.77-1.28 2.31a12.58 12.58 0 0 1-4.84 1.92c-1.94.41-1.59-1.61-2.44-2.52Z" class="cls-53" />
        <path d="M211.81 153.47a1.44 1.44 0 0 0-1.09.64 1.62 1.62 0 0 1-1.37.84c-.5 0-1.12.13-1.39-.29-.37-.59.32-.82.65-1.14a11.77 11.77 0 0 1 3.2-2.54c.87-.39 1.54-.39 2 .6.3.65-.1 2.2 1.62 1.22.37-.2.52.87.56 1.38a.81.81 0 0 1-1.1.89 2.92 2.92 0 0 1-1.81-.89 2 2 0 0 0-1.27-.71Z" style="fill:#f8fbf9" />
        <path d="M196.06 171.14a2.7 2.7 0 0 1 1.48-2.39c.76-.51 1.29-.08 1.79.45a1.12 1.12 0 0 0 .84.32c.65 0 1.58-.31 1.77.56.16.69-.72 1.08-1.13 1.61-1 1.33-2.18 2.14-3.92 1a1.49 1.49 0 0 1-.83-1.55Z" class="cls-53" />
        <path d="M202.46 157.36c.06.1.16.19.18.3.23 1.17.58 2.72-.7 3.12s-2.45-.56-2.81-2.06a1.24 1.24 0 0 0-.73-1c-2.37-.7-.49-2-.15-2.6s.83-.05 1 .56c.75 2.76.75 2.76 3.21 1.68ZM134.56 158.81a1.4 1.4 0 0 1 1.59.07 1.89 1.89 0 0 0 2.39.08c1-.65 1.55.11 2 .76.54.83-.4 1.05-.83 1.36-2.33 1.6-4.13.79-5.15-2.27Z" class="cls-55" />
        <path d="M198.81 139.42c-1-.66-3.06.13-3.15-2 0-.48 0-1.32 1-1.26 1.5.07 3.4 1.54 3.36 2.67-.02.77-.65.52-1.21.59Z" style="fill:#f2f8f4" />
        <path d="M174.53 131.1c1.18-1.16 2.1-2 3.42-.93 1 .85 1.62 3.82 1 4.69-.13.18-.41.41-.57.38a.75.75 0 0 1-.55-.85c.17-2.14-.98-3.08-3.3-3.29Z" style="fill:#f0f9f3" />
        <path d="M206.39 146.2c1.58-2 3.76-2.3 5-.84.22.28.63.54.46.94a1 1 0 0 1-1.13.44c-1.43-.15-2.82-.34-4.33-.54Z" style="fill:#edf6f0" />
        <path d="M185.79 134.05c.44 2.41-1.12 3.65-2.48 5-1.09-2.05-.45-3.35 2.48-5Z" style="fill:#f3f8f4" />
        <path d="M149.37 163.67a8 8 0 0 1 4.8.56c.48.19 1 .46.85 1.05s-.71.78-1.3.78a1.43 1.43 0 0 1-1.21-.34 8.82 8.82 0 0 0-3.14-2.05Z" style="fill:#e8f4ec" />
        <path d="M165.22 164.29c-1.68-.94-2.53-1.95-1.22-3.58.24-.29.31-1 .87-.66.38.22.9.52.81 1.15-.14.98-.29 1.96-.46 3.09Z" style="fill:#edf6ef" />
        <path d="m176.49 143.3 1.12-2.32c.19-.39.09-1.22.85-.88 1 .46.61 1.66 1 2.47.21.45 0 .72-.5.73Z" style="fill:#f3f7f4" />
        <path d="M189.55 166.88c-.44-.11-1.23 0-1-.51a3.79 3.79 0 0 1 2.26-2.05c.5-.15.89.44.84 1-.13 1.26-1.23 1.3-2.1 1.56Z" style="fill:#dbeee1" />
        <path d="M168.92 163.39c1-.59 2-.69 2.28-1.79.23-.78.82-.21 1.16.1.5.46.85 1.13 0 1.51a3.47 3.47 0 0 1-3.44.18Z" style="fill:#dbeadf" />
        <path d="M186 145.08c-.56 1-1.51.89-2.17 1.32a.67.67 0 0 1-1.09-.53c0-.5.06-1.21.83-1.17a22.92 22.92 0 0 1 2.43.38Z" style="fill:#e9f2ec" />
        <path d="M193 137.45c-.62.73-1.08 1.32-1.58 1.85-.27.29-.54.83-1.05.32a.79.79 0 0 1 .05-1.18c.58-.62 1.16-1.5 2.58-.99Z" style="fill:#e4f1e8" />
        <path d="M160.12 142.5c-1.1.6-1.91.81-2.62.05-.26-.27 0-.62.25-.77.95-.61 1.37.43 2.37.72Z" style="fill:#cde4d4" />
        <path d="M172.19 138.13c0 .34 0 .74-.61.63a1.21 1.21 0 0 1-1.05-1.14c0-.38.08-.87.53-.81a1.28 1.28 0 0 1 1.13 1.32Z" style="fill:#e2eee6" />
        <path d="M155 146.57c-.14 0-.53 0-.42-.44s.25-1.15 1-1.11a.65.65 0 0 1 .6.76c-.1.56-.46.85-1.18.79Z" style="fill:#cee0d3" />
        <path d="M187.31 157.46c-.52-.11-.5-.43-.46-.73s.24-.74.73-.56a2.41 2.41 0 0 1 .56.42Z" style="fill:#d4e1d7" />
      </g>
    </symbol>
    <symbol id="manara" fill="none" viewBox="0 0 150 33">
      <path fill="#000" fill-rule="evenodd" d="M70.5916 16.527c0-4.5718 2.718-7.527 6.829-7.527.2818 0 .7328.01111 1.352.03335l.9028.0353.1094.0054c3.6045.20495 6.4299 3.07285 6.4299 6.55175v8.0236h-4.1132v-2.0547l-.4839.5599-.0537.061C80.5849 23.3063 78.9732 24 77.6171 24c-4.2922 0-7.0255-2.9078-7.0255-7.473Zm10.5073-2.1294c-.5615-.9972-1.7967-1.5632-3.088-1.5632-1.9932 0-3.425 1.2668-3.425 3.6656 0 2.291 1.3195 3.6926 3.5372 3.6926 1.2353 0 2.3582-.4852 2.9758-1.6442.2812-.6541.4219-1.4005.4219-2.2392 0-.8386-.1407-1.4758-.4219-1.9116Zm24.1891 2.1294c0-4.5718 2.718-7.527 6.829-7.527.282 0 .733.01111 1.352.03335l.903.0353.109.0054c3.605.20495 6.43 3.07285 6.43 6.55175v8.0236h-4.113v-2.0547l-.484.5599-.054.061C115.281 23.3063 113.67 24 112.314 24c-4.293 0-7.026-2.9078-7.026-7.473Zm10.507-2.1294c-.561-.9972-1.796-1.5632-3.088-1.5632-1.993 0-3.424 1.2668-3.424 3.6656 0 2.291 1.319 3.6926 3.537 3.6926 1.235 0 2.358-.4852 2.975-1.6442.383-.6606.574-1.403.574-2.2274 0-.7495-.191-1.3906-.574-1.9234ZM141.206 9c-4.111 0-6.829 2.9552-6.829 7.527 0 4.5652 2.733 7.473 7.025 7.473 1.356 0 2.968-.6937 3.947-1.7844l.054-.061.484-.5599v2.0547H150v-8.0236c0-3.4789-2.825-6.3468-6.43-6.55175l-.109-.0054-.903-.0353C141.939 9.01111 141.488 9 141.206 9Zm.59 3.8344c1.291 0 2.527.566 3.088 1.5632.355.5473.532 1.2481.532 2.1024 0 .8543-.177 1.5372-.532 2.0484-.617 1.159-1.74 1.6442-2.976 1.6442-2.217 0-3.537-1.4016-3.537-3.6926 0-2.3988 1.432-3.6656 3.425-3.6656Zm-9.136-3.80745.059.00049c.099.00163.194.00736.299.01755l.042.00437v4.44014l-.133-.0218c-.487-.0782-.858-.1142-1.221-.1142l-.071.0004c-2.317.0253-3.712 1.3068-3.712 3.766v6.5295h-4.282v-8.6748l.001-.0941c.051-3.1001 2.613-5.63387 5.851-5.764 1.29-.05185 2.256-.08118 2.898-.088l.269-.00155ZM88.8079 14.8976c.6343-3.5386 3.0045-5.28588 7.1929-5.28588 2.8621 0 4.8062.78638 5.9832 2.14278l.064.0751c.796.9559 1.161 2.1256 1.161 3.1341v8.6857h-4.3102l.0003-6.8797-.0007-.0934c-.0089-.8635-.1044-1.4786-.4024-2.0481-.4394-.8397-1.2553-1.3106-2.4952-1.3106-1.3179 0-2.1705.587-2.6051 1.583l-.0363.0863c-.2576.6359-.3227 1.3287-.2846 2.038l-.0004 6.6245h-4.2817v-8.6651l.0152-.0867Zm-39.3626 2.0822v6.7291h-4.4135L45 15.1312s.4217-5.53836 7.1684-5.53836c3.4436 0 4.3461.79466 5.3138 2.29906 1.1385-1.4224 2.8672-2.29906 5.0873-2.29906 5.9736 0 6.2872 4.33266 6.2872 5.52686v8.5892h-4.5255v-7.6591c0-1.5592-1.0531-2.544-2.3909-2.544-1.6793 0-2.7893 1.1763-2.7893 3.474v6.7291h-4.554v-7.6591c0-1.5592-1.0531-2.544-2.4193-2.544-1.6509 0-2.7324 1.1763-2.7324 3.474Z" clip-rule="evenodd" />
      <path fill="#FF773B" fill-rule="evenodd" d="M15.8656 13.5267h-2.0317l-.0013 1.9088H5.92179L0 9.6376V7.77873l7.84027-.02075L7.94185 0H9.872l2.0317 1.98923 1.9302 1.88976 1.9301 1.88977.1016 7.75794Zm3.8347 0h-2.0318l.1016-7.75794 1.9302-1.88977 1.9301-1.88976L23.6622 0h1.9301l.1016 7.75798 7.8403.02075V9.6376l-5.9218 5.7979h-7.9108l-.0013-1.9088Zm-4.015 1.9088h1.9832v1.9516h-1.9832v-1.9516Zm-1.7627 17.5182h5.8624v-1.6606l-3.0122-2.5907-2.8502 2.5907v1.6606Zm3.7459-13.6579h2.0318l.0013-1.9087h7.9108l5.9218 5.7979v1.8588l-7.8403.0208-.1016 7.758h-1.9301l-2.0318-1.9892-1.9301-1.8898-1.9302-1.8898-.1016-7.758Zm-3.8346.1775h2.0317l-.1016 7.7579-1.9301 1.8898-1.9302 1.8898L9.872 33H7.94185l-.10158-7.758L0 25.2213v-1.8589l5.92179-5.7979h7.91081l.0013 1.9088ZM27.7648 33v-5.8548h5.9496L27.7648 33ZM5.94961 27.1452V33L0 27.1452h5.94961ZM27.7648 0v5.85484h5.9496L27.7648 0ZM5.94961 6.03226V.177419L0 6.03226h5.94961ZM33.5342 19.3387v-5.8548h-1.6563l-2.4904 2.9183 2.4904 2.9365h1.6563ZM13.833.0486784h5.8623V1.62599l-3.0121 2.32015-2.8502-2.32015V.0486784ZM0 19.3387v-5.8548h1.57928l2.56742 2.9183-2.56742 2.9365H0Z" clip-rule="evenodd" />
    </symbol>
    <symbol id="airplane" viewBox="0 0 1024 1024">
      <g>
        <path d="M768 639.968l-182.82-182.822 438.82-329.15-128.010-127.996-548.52 219.442-172.7-172.706c-49.78-49.778-119.302-61.706-154.502-26.508-35.198 35.198-23.268 104.726 26.51 154.5l172.686 172.684-219.464 548.582 127.99 128.006 329.19-438.868 182.826 182.828v255.98h127.994l63.992-191.988 191.988-63.996v-127.992l-255.98 0.004z"></path>
      </g>
    </symbol>
    <symbol id="language" viewBox="0 0 24 28">
      <path fill="#444" d="M10.21874219 16.84375c-.0312539.109375-.7968789-.2500039-.99998828-.328125-.20313672-.09376172-1.12500391-.60938281-1.3593672-.765625s-1.1250039-.89061328-1.2343789-.93750781c-.56248828.85938672-1.2812461 1.87498828-2.09373828 2.82813672-.28125781.328125-1.1250039 1.39062109-1.640625 1.71874609-.0781211.04686719-.53126172.09376172-.59374219.06250781.25000391-.1874961.96876172-1.07813672 1.2812461-1.43748828.39063281-.45311328 2.25000781-3.04688672 2.56249219-3.6406289.328125-.5937422 1.3125-2.5624922 1.35936718-2.74998829-.15624218-.01561328-1.3906211.4062461-1.7187461.5156211-.31251171.09376172-1.17187108.2968711-1.2343789.34373828-.06250781.06250781-.01561328.2500039-.04686718.31251172s-.31251172.20313672-.4843672.23436328c-.15624218.04686719-.51562109.06250781-.73437109 0-.20313671-.04686719-.3906328-.2500039-.4375-.328125 0 0-.0625078-.09376172-.07812109-.3593789.1874961-.06250782.50000781-.0781211.8437461-.17188282s1.18751171-.34373828 1.640625-.50000781 1.32811328-.48436719 1.5937578-.546875c.28125782-.04686719.984375-.5156211 1.3593672-.64063672s.64063671-.28125781.65625-.20313672 0 .42188672-.01561329.5156211c-.01561328.07812109-.765625 1.54686327-.875 1.7812539-.06250781.12498828-.50000781.9531211-1.203125 2.0468711.2500039.109375.78123828.328125.99998828.4375.2656172.12498827 2.1249922.9062539 2.21875391.9375078s.26561719.75001172.23436328.875zm-3.2031289-7.59374219c.04686718.26561719-.03125391.37499219-.06250782.4375-.15624219.2968711-.546875.50000782-.78123828.59374219s-.6249961.1874961-.93750781.1874961c-.14062891-.01561329-.42188672-.06250782-.765625-.4062461-.1874961-.20313672-.328125-.75001172-.2656172-.6875039s.5156211.12498827.71875782.07812109.6875039-.1874961.9062539-.2500039c.23436329-.0781211.7031172-.20313673.85938673-.21875.15624218 0 .2812578.0625078.328125.26561718zM17.92188671 11.265625l.984375 3.54686719-2.17188672-.65625zM.60938282 23.7656289l10.84373827-3.62498827V4.01564842L.60938281 7.65627735v16.10937891zM20.00001171 18.8125l1.59375781.48436719-2.82813672-10.26563672-1.5625039-.48436719-3.37501172 8.37500781 1.59375781.4843672.70311719-1.7187461 3.29686328 1.0156289zM12.140625 3.78125781l8.95313672 2.8750039V.71875782zm4.85936719 20.671875 2.46875781.20313672-.8437461 2.50001172-.62499609-1.03124219c-1.26563281.81249219-2.82813672 1.43748828-4.31249218 1.68749219-.45311329.09376172-.96876172.1874961-1.421875.1874961h-1.3125c-1.65623829 0-4.6718711-.984375-5.9843711-1.9374961-.09376172-.0781211-.12498828-.1406289-.12498828-.2500039 0-.17188282.12498828-.2968711.28125781-.2968711.1406289 0 .875.45311328 1.07813672.546875 1.40626172.70311719 3.37501172 1.3437539 4.9531289 1.3437539 1.95313673 0 3.28125-.2500039 5.06250391-1.0156289.5156211-.23436328.96876172-.53126172 1.45312891-.7968789zm7-16.85939062v16.85936328c-12.07811719-3.84373828-12.09375781-3.84373828-12.09375781-3.84373828C11.65623047 20.71874219.45311328 24.5.29687109 24.5c-.12498828 0-.23436328-.0781211-.2812578-.20313672C.01561328 24.28125 0 24.26560938 0 24.2499961v-16.84375c.01561328-.04686718.0312539-.12498828.06250781-.15624218.09376172-.109375.21875-.14062891.31251172-.17188282.04686719-.01561328.99998828-.328125 2.3281289-.78123828V.2968711l8.7187461 3.09375391C11.53126953 3.3593711 21.25003125 0 21.39063281 0c.17188282 0 .31251172.12498828.31251172.328125v6.5312461z" />
    </symbol>
  </defs>

</svg>